<?xml version="1.0" encoding="UTF-8"?> <svg xmlns="http://www.w3.org/2000/svg" width="319" height="467" viewBox="0 0 319 467" fill="none"> <path d="M0 11C0 4.92488 4.92487 0 11 0H308C314.075 0 319 4.92487 319 11V456C319 462.075 314.075 467 308 467H11C4.92487 467 0 462.075 0 456V11Z" fill="#121212" fill-opacity="0.34"></path> <path d="M11 0.5H308C313.799 0.5 318.5 5.20101 318.5 11V456C318.5 461.799 313.799 466.5 308 466.5H11C5.20102 466.5 0.5 461.799 0.5 456V11C0.5 5.20102 5.20101 0.5 11 0.5Z" stroke="url(#paint0_linear_1017_1606)" stroke-opacity="0.18"></path> <path d="M11 0.5H308C313.799 0.5 318.5 5.20101 318.5 11V456C318.5 461.799 313.799 466.5 308 466.5H11C5.20102 466.5 0.5 461.799 0.5 456V11C0.5 5.20102 5.20101 0.5 11 0.5Z" stroke="url(#paint1_linear_1017_1606)" stroke-opacity="0.32"></path> <defs> <linearGradient id="paint0_linear_1017_1606" x1="148.553" y1="-3.57522e-05" x2="225.982" y2="516.068" gradientUnits="userSpaceOnUse"> <stop stop-color="#F0D9D9"></stop> <stop offset="1" stop-color="#C4C4C4" stop-opacity="0.7"></stop> </linearGradient> <linearGradient id="paint1_linear_1017_1606" x1="22.5553" y1="-130.689" x2="287.479" y2="-100.305" gradientUnits="userSpaceOnUse"> <stop stop-color="white" stop-opacity="0"></stop> <stop offset="0.526042" stop-color="white"></stop> <stop offset="1" stop-color="white" stop-opacity="0"></stop> </linearGradient> </defs> </svg> 