<?xml version="1.0" encoding="UTF-8"?> <svg xmlns="http://www.w3.org/2000/svg" width="371" height="103" viewBox="0 0 371 103" fill="none"> <path d="M2.91319 9.93617C1.52923 6.64102 3.94912 3 7.5231 3H317.099C320.77 3 323.189 6.8232 321.618 10.1404L307 41L303.61 51.1704C303.217 52.3479 303.277 53.6292 303.777 54.7652L321.914 95.9863C323.368 99.2908 320.948 103 317.337 103H7.5231C3.94912 103 1.52923 99.359 2.91319 96.0638L20.1868 54.9362C20.7069 53.6978 20.7069 52.3022 20.1868 51.0638L2.91319 9.93617Z" fill="#25250C"></path> <path d="M2.91319 9.93617C1.52923 6.64102 3.94912 3 7.5231 3H317.099C320.77 3 323.189 6.8232 321.618 10.1404L307 41L303.61 51.1704C303.217 52.3479 303.277 53.6292 303.777 54.7652L321.914 95.9863C323.368 99.2908 320.948 103 317.337 103H7.5231C3.94912 103 1.52923 99.359 2.91319 96.0638L20.1868 54.9362C20.7069 53.6978 20.7069 52.3022 20.1868 51.0638L2.91319 9.93617Z" fill="url(#paint0_linear_15_7525)" fill-opacity="0.9"></path> <path d="M3.61803 7.23606C1.95578 3.91156 4.37326 0 8.09017 0H362.524C366.332 0 368.742 4.08597 366.9 7.41843L350 38L345.899 47.8432C345.329 49.2101 345.395 50.7592 346.078 52.073L367.2 92.6932C368.931 96.0218 366.516 100 362.764 100H8.09018C4.37327 100 1.95578 96.0884 3.61803 92.7639L23.882 52.2361C24.5858 50.8284 24.5858 49.1716 23.882 47.7639L3.61803 7.23606Z" fill="#F1F2B9"></path> <path d="M3.61803 7.23606C1.95578 3.91156 4.37326 0 8.09017 0H362.524C366.332 0 368.742 4.08597 366.9 7.41843L350 38L345.899 47.8432C345.329 49.2101 345.395 50.7592 346.078 52.073L367.2 92.6932C368.931 96.0218 366.516 100 362.764 100H8.09018C4.37327 100 1.95578 96.0884 3.61803 92.7639L23.882 52.2361C24.5858 50.8284 24.5858 49.1716 23.882 47.7639L3.61803 7.23606Z" fill="url(#paint1_linear_15_7525)" fill-opacity="0.9"></path> <path d="M100.462 44.56C101.65 43.372 103.138 42.778 104.926 42.778C106.714 42.778 108.202 43.372 109.39 44.56C110.578 45.748 111.172 47.23 111.172 49.006C111.172 50.782 110.578 52.264 109.39 53.452C108.202 54.64 106.714 55.234 104.926 55.234C103.138 55.234 101.65 54.64 100.462 53.452C99.274 52.264 98.68 50.782 98.68 49.006C98.68 47.23 99.274 45.748 100.462 44.56ZM101.758 52.282C102.586 53.122 103.642 53.542 104.926 53.542C106.21 53.542 107.266 53.122 108.094 52.282C108.922 51.43 109.336 50.338 109.336 49.006C109.336 47.674 108.922 46.588 108.094 45.748C107.266 44.896 106.21 44.47 104.926 44.47C103.642 44.47 102.586 44.896 101.758 45.748C100.93 46.588 100.516 47.674 100.516 49.006C100.516 50.338 100.93 51.43 101.758 52.282ZM124.169 43.642V45.802C123.185 44.914 122.099 44.47 120.911 44.47C119.615 44.47 118.559 44.902 117.743 45.766C116.939 46.618 116.537 47.71 116.537 49.042C116.537 50.326 116.951 51.4 117.779 52.264C118.607 53.116 119.657 53.542 120.929 53.542C122.117 53.542 123.197 53.08 124.169 52.156V54.334C123.161 54.934 122.063 55.234 120.875 55.234C119.207 55.234 117.791 54.682 116.627 53.578C115.343 52.378 114.701 50.866 114.701 49.042C114.701 47.122 115.343 45.556 116.627 44.344C117.731 43.3 119.177 42.778 120.965 42.778C122.201 42.778 123.269 43.066 124.169 43.642ZM134.323 44.722H131.569V55H129.733V44.722H126.979V42.994H134.323V44.722ZM145.333 55L144.073 52.102H138.943L137.629 55H135.649L141.625 42.292L147.313 55H145.333ZM139.699 50.374H143.335L141.553 46.306L139.699 50.374ZM150.63 42.994H152.448C153.264 42.994 153.924 43.06 154.428 43.192C154.932 43.324 155.376 43.57 155.76 43.93C156.396 44.53 156.714 45.322 156.714 46.306C156.714 46.87 156.594 47.344 156.354 47.728C156.138 48.1 155.838 48.376 155.454 48.556C156.078 48.712 156.594 49 157.002 49.42C157.53 49.972 157.794 50.722 157.794 51.67C157.794 52.546 157.53 53.266 157.002 53.83C156.258 54.61 155.136 55 153.636 55H150.63V42.994ZM152.466 44.722V48.16H153.024C153.696 48.16 154.194 48.004 154.518 47.692C154.83 47.392 154.986 46.936 154.986 46.324C154.986 45.832 154.842 45.448 154.554 45.172C154.242 44.872 153.756 44.722 153.096 44.722H152.466ZM152.466 49.672V53.272H153.582C154.41 53.272 155.016 53.116 155.4 52.804C155.796 52.492 155.994 52.048 155.994 51.472C155.994 50.956 155.832 50.536 155.508 50.212C155.136 49.852 154.506 49.672 153.618 49.672H152.466ZM170.004 55V46.918L161.904 55.54V42.994H163.74V51.112L171.84 42.49V55H170.004ZM182.603 44.722H179.849V55H178.013V44.722H175.259V42.994H182.603V44.722ZM186.018 55V42.994H187.854V47.836H189.222C190.506 47.836 191.508 48.154 192.228 48.79C192.984 49.45 193.362 50.332 193.362 51.436C193.362 52.012 193.23 52.564 192.966 53.092C192.714 53.608 192.348 54.028 191.868 54.352C191.22 54.784 190.344 55 189.24 55H186.018ZM187.854 49.564V53.272H189.15C190.758 53.272 191.562 52.666 191.562 51.454C191.562 50.926 191.382 50.482 191.022 50.122C190.674 49.75 190.062 49.564 189.186 49.564H187.854ZM204.056 45.712L202.85 44.542C203.294 43.954 203.81 43.522 204.398 43.246C204.998 42.946 205.724 42.796 206.576 42.796C207.776 42.796 208.706 43.114 209.366 43.75C209.942 44.314 210.23 45.016 210.23 45.856C210.23 46.432 210.098 46.93 209.834 47.35C209.582 47.782 209.222 48.13 208.754 48.394C209.414 48.562 209.954 48.916 210.374 49.456C210.782 49.972 210.986 50.65 210.986 51.49C210.986 52.57 210.584 53.464 209.78 54.172C208.964 54.868 207.884 55.216 206.54 55.216C205.4 55.216 204.416 54.904 203.588 54.28C202.94 53.776 202.43 53.128 202.058 52.336L203.678 51.508C203.918 52.12 204.29 52.606 204.794 52.966C205.322 53.338 205.982 53.524 206.774 53.524C207.566 53.524 208.178 53.308 208.61 52.876C208.994 52.492 209.186 52 209.186 51.4C209.186 50.776 208.952 50.308 208.484 49.996C208.04 49.684 207.314 49.528 206.306 49.528H205.226V47.8H206.198C206.966 47.8 207.542 47.638 207.926 47.314C208.286 47.014 208.466 46.606 208.466 46.09C208.466 45.55 208.274 45.136 207.89 44.848C207.578 44.608 207.116 44.488 206.504 44.488C205.928 44.488 205.442 44.602 205.046 44.83C204.662 45.046 204.332 45.34 204.056 45.712ZM223.025 55L221.765 52.102H216.635L215.321 55H213.341L219.317 42.292L225.005 55H223.025ZM217.391 50.374H221.027L219.245 46.306L217.391 50.374ZM227.242 55L230.806 49.996C230.098 49.912 229.48 49.642 228.952 49.186C228.268 48.586 227.926 47.734 227.926 46.63C227.926 45.622 228.232 44.788 228.844 44.128C229.168 43.78 229.552 43.516 229.996 43.336C230.44 43.156 230.8 43.054 231.076 43.03C231.352 43.006 231.694 42.994 232.102 42.994H235.054V55H233.218V50.194H232.786L229.51 55H227.242ZM233.218 44.686H232.318C231.334 44.686 230.65 44.872 230.266 45.244C229.882 45.604 229.69 46.066 229.69 46.63C229.69 47.278 229.918 47.758 230.374 48.07C230.806 48.358 231.418 48.502 232.21 48.502H233.218V44.686ZM239.737 42.994H241.555C242.371 42.994 243.031 43.06 243.535 43.192C244.039 43.324 244.483 43.57 244.867 43.93C245.503 44.53 245.821 45.322 245.821 46.306C245.821 46.87 245.701 47.344 245.461 47.728C245.245 48.1 244.945 48.376 244.561 48.556C245.185 48.712 245.701 49 246.109 49.42C246.637 49.972 246.901 50.722 246.901 51.67C246.901 52.546 246.637 53.266 246.109 53.83C245.365 54.61 244.243 55 242.743 55H239.737V42.994ZM241.573 44.722V48.16H242.131C242.803 48.16 243.301 48.004 243.625 47.692C243.937 47.392 244.093 46.936 244.093 46.324C244.093 45.832 243.949 45.448 243.661 45.172C243.349 44.872 242.863 44.722 242.203 44.722H241.573ZM241.573 49.672V53.272H242.689C243.517 53.272 244.123 53.116 244.507 52.804C244.903 52.492 245.101 52.048 245.101 51.472C245.101 50.956 244.939 50.536 244.615 50.212C244.243 49.852 243.613 49.672 242.725 49.672H241.573ZM252.847 42.994V47.782L257.491 42.994H259.903L254.485 48.43L259.939 55H257.491L253.207 49.672L252.847 50.032V55H251.011V42.994H252.847ZM262.026 42.994H264.258L267.354 49.402L270.162 42.994H272.07L266.652 55H264.744L266.292 51.598L262.026 42.994Z" fill="#161616"></path> <defs> <linearGradient id="paint0_linear_15_7525" x1="53.849" y1="-17.7627" x2="240.606" y2="185.143" gradientUnits="userSpaceOnUse"> <stop stop-color="white" stop-opacity="0"></stop> <stop offset="0.453125" stop-color="white" stop-opacity="0.54"></stop> <stop offset="1" stop-color="white" stop-opacity="0"></stop> </linearGradient> <linearGradient id="paint1_linear_15_7525" x1="61.4707" y1="-20.7627" x2="244.609" y2="206.374" gradientUnits="userSpaceOnUse"> <stop stop-color="white" stop-opacity="0"></stop> <stop offset="0.453125" stop-color="white" stop-opacity="0.54"></stop> <stop offset="1" stop-color="white" stop-opacity="0"></stop> </linearGradient> </defs> </svg> 