<?xml version="1.0" encoding="UTF-8"?> <svg xmlns="http://www.w3.org/2000/svg" width="47" height="47" viewBox="0 0 47 47" fill="none"> <circle cx="23.5" cy="23.5" r="23.5" fill="url(#paint0_linear_101_2)" fill-opacity="0.4"></circle> <path d="M32.5552 24.9271C32.8745 24.6188 32.8834 24.1101 32.575 23.7908L27.5508 18.588C27.2424 18.2687 26.7337 18.2598 26.4144 18.5682C26.0951 18.8765 26.0863 19.3852 26.3946 19.7045L30.8606 24.3292L26.2359 28.7952C25.9166 29.1036 25.9078 29.6123 26.2161 29.9316C26.5244 30.2509 27.0331 30.2597 27.3524 29.9514L32.5552 24.9271ZM11.986 24.8035L31.9829 25.1526L32.011 23.5455L12.014 23.1965L11.986 24.8035Z" fill="#F1F2B9"></path> <path d="M32.5552 24.9271C32.8745 24.6188 32.8834 24.1101 32.575 23.7908L27.5508 18.588C27.2424 18.2687 26.7337 18.2598 26.4144 18.5682C26.0951 18.8765 26.0863 19.3852 26.3946 19.7045L30.8606 24.3292L26.2359 28.7952C25.9166 29.1036 25.9078 29.6123 26.2161 29.9316C26.5244 30.2509 27.0331 30.2597 27.3524 29.9514L32.5552 24.9271ZM11.986 24.8035L31.9829 25.1526L32.011 23.5455L12.014 23.1965L11.986 24.8035Z" fill="url(#paint1_linear_101_2)" fill-opacity="0.9"></path> <defs> <linearGradient id="paint0_linear_101_2" x1="23.5" y1="0" x2="23.5" y2="47" gradientUnits="userSpaceOnUse"> <stop stop-color="#484848"></stop> <stop offset="1" stop-color="white"></stop> </linearGradient> <linearGradient id="paint1_linear_101_2" x1="15.3169" y1="23.8502" x2="15.8011" y2="27.5252" gradientUnits="userSpaceOnUse"> <stop stop-color="white" stop-opacity="0"></stop> <stop offset="0.453125" stop-color="white" stop-opacity="0.54"></stop> <stop offset="1" stop-color="white" stop-opacity="0"></stop> </linearGradient> </defs> </svg> 