<?xml version="1.0" encoding="UTF-8"?> <svg xmlns="http://www.w3.org/2000/svg" width="17" height="77" viewBox="0 0 17 77" fill="none"> <path d="M0.98 6.38V5.06C3.69333 4.98666 5.93 4.69333 7.69 4.17999C9.45 3.66666 10.8433 3.11666 11.87 2.52999C13.0433 1.79666 13.9233 0.989995 14.51 0.109993L14.62 75.68H16.82V77H2.85V75.68H5.6V6.38H0.98Z" fill="#F1F2B9"></path> <path d="M0.98 6.38V5.06C3.69333 4.98666 5.93 4.69333 7.69 4.17999C9.45 3.66666 10.8433 3.11666 11.87 2.52999C13.0433 1.79666 13.9233 0.989995 14.51 0.109993L14.62 75.68H16.82V77H2.85V75.68H5.6V6.38H0.98Z" fill="url(#paint0_linear_1057_3294)" fill-opacity="0.9"></path> <defs> <linearGradient id="paint0_linear_1057_3294" x1="3.47361" y1="-28.839" x2="37.0769" y2="-26.0817" gradientUnits="userSpaceOnUse"> <stop stop-color="white" stop-opacity="0"></stop> <stop offset="0.453125" stop-color="white" stop-opacity="0.54"></stop> <stop offset="1" stop-color="white" stop-opacity="0"></stop> </linearGradient> </defs> </svg> 