<?xml version="1.0" encoding="UTF-8"?> <svg xmlns="http://www.w3.org/2000/svg" width="28" height="78" viewBox="0 0 28 78" fill="none"> <path d="M20.58 76.89C19.5533 77.11 18.4533 77.0367 17.28 76.67C16.18 76.3033 15.1167 75.7167 14.09 74.91C12.8433 73.9567 11.56 73.3333 10.24 73.04C9.14 72.82 7.89333 72.9667 6.5 73.48C5.18 73.92 3.89667 75.0933 2.65 77C1.40333 76.9267 0.89 75.3133 1.11 72.16C1.40333 69.0067 2.24667 64.7167 3.64 59.29C5.03333 53.8633 6.90333 47.4833 9.25 40.15C11.67 32.8167 14.3833 24.9333 17.39 16.5C18.49 13.4933 19.1133 11 19.26 9.02C19.48 7.04 19.2967 5.46333 18.71 4.29C18.1233 3.11666 17.2067 2.31 15.96 1.87C14.7867 1.35666 13.3567 1.09999 11.67 1.09999C9.25 1.39333 7.6 1.72333 6.72 2.08999C5.91333 2.45666 5.51 2.89666 5.51 3.41C5.51 3.92333 5.80333 4.47333 6.39 5.06C6.97667 5.57333 7.45333 6.16 7.82 6.82C8.26 7.48 8.44333 8.17667 8.37 8.91C8.29667 9.64333 7.63667 10.3767 6.39 11.11C5.36333 11.77 4.44667 11.9533 3.64 11.66C2.83333 11.3667 2.21 10.8167 1.77 10.01C1.40333 9.13 1.25667 8.13999 1.33 7.04C1.40333 5.86666 1.80667 4.76667 2.54 3.74C3.27333 2.71333 4.37333 1.83333 5.84 1.09999C7.30667 0.366661 9.25 -5.24521e-06 11.67 -5.24521e-06C15.19 -5.24521e-06 17.9767 0.843328 20.03 2.52999C22.0833 4.14333 23.55 6.16 24.43 8.58C25.31 11 25.6767 13.5667 25.53 16.28C25.4567 18.9933 25.0167 21.3767 24.21 23.43C21.57 30.47 18.8933 36.74 16.18 42.24C13.54 47.6667 11.1567 52.47 9.03 56.65C6.90333 60.83 5.21667 64.46 3.97 67.54C2.79667 70.62 2.35667 73.3333 2.65 75.68C3.75 73.92 4.92333 72.82 6.17 72.38C7.49 71.8667 8.73667 71.6833 9.91 71.83C11.23 72.05 12.55 72.5633 13.87 73.37C15.0433 74.1767 16.18 74.8367 17.28 75.35C18.4533 75.79 19.5533 75.9367 20.58 75.79C21.9 75.4967 22.7067 75.1667 23 74.8C23.2933 74.36 23.2933 73.92 23 73.48C22.78 72.9667 22.4133 72.4533 21.9 71.94C21.3867 71.4267 20.9833 70.8767 20.69 70.29C20.3967 69.63 20.3233 69.0067 20.47 68.42C20.6167 67.76 21.24 67.0633 22.34 66.33C23.7333 65.45 24.87 65.4133 25.75 66.22C26.7033 66.9533 27.18 68.0167 27.18 69.41C27.2533 70.8033 26.7767 72.27 25.75 73.81C24.7233 75.2767 23 76.3033 20.58 76.89Z" fill="#F1F2B9"></path> <path d="M20.58 76.89C19.5533 77.11 18.4533 77.0367 17.28 76.67C16.18 76.3033 15.1167 75.7167 14.09 74.91C12.8433 73.9567 11.56 73.3333 10.24 73.04C9.14 72.82 7.89333 72.9667 6.5 73.48C5.18 73.92 3.89667 75.0933 2.65 77C1.40333 76.9267 0.89 75.3133 1.11 72.16C1.40333 69.0067 2.24667 64.7167 3.64 59.29C5.03333 53.8633 6.90333 47.4833 9.25 40.15C11.67 32.8167 14.3833 24.9333 17.39 16.5C18.49 13.4933 19.1133 11 19.26 9.02C19.48 7.04 19.2967 5.46333 18.71 4.29C18.1233 3.11666 17.2067 2.31 15.96 1.87C14.7867 1.35666 13.3567 1.09999 11.67 1.09999C9.25 1.39333 7.6 1.72333 6.72 2.08999C5.91333 2.45666 5.51 2.89666 5.51 3.41C5.51 3.92333 5.80333 4.47333 6.39 5.06C6.97667 5.57333 7.45333 6.16 7.82 6.82C8.26 7.48 8.44333 8.17667 8.37 8.91C8.29667 9.64333 7.63667 10.3767 6.39 11.11C5.36333 11.77 4.44667 11.9533 3.64 11.66C2.83333 11.3667 2.21 10.8167 1.77 10.01C1.40333 9.13 1.25667 8.13999 1.33 7.04C1.40333 5.86666 1.80667 4.76667 2.54 3.74C3.27333 2.71333 4.37333 1.83333 5.84 1.09999C7.30667 0.366661 9.25 -5.24521e-06 11.67 -5.24521e-06C15.19 -5.24521e-06 17.9767 0.843328 20.03 2.52999C22.0833 4.14333 23.55 6.16 24.43 8.58C25.31 11 25.6767 13.5667 25.53 16.28C25.4567 18.9933 25.0167 21.3767 24.21 23.43C21.57 30.47 18.8933 36.74 16.18 42.24C13.54 47.6667 11.1567 52.47 9.03 56.65C6.90333 60.83 5.21667 64.46 3.97 67.54C2.79667 70.62 2.35667 73.3333 2.65 75.68C3.75 73.92 4.92333 72.82 6.17 72.38C7.49 71.8667 8.73667 71.6833 9.91 71.83C11.23 72.05 12.55 72.5633 13.87 73.37C15.0433 74.1767 16.18 74.8367 17.28 75.35C18.4533 75.79 19.5533 75.9367 20.58 75.79C21.9 75.4967 22.7067 75.1667 23 74.8C23.2933 74.36 23.2933 73.92 23 73.48C22.78 72.9667 22.4133 72.4533 21.9 71.94C21.3867 71.4267 20.9833 70.8767 20.69 70.29C20.3967 69.63 20.3233 69.0067 20.47 68.42C20.6167 67.76 21.24 67.0633 22.34 66.33C23.7333 65.45 24.87 65.4133 25.75 66.22C26.7033 66.9533 27.18 68.0167 27.18 69.41C27.2533 70.8033 26.7767 72.27 25.75 73.81C24.7233 75.2767 23 76.3033 20.58 76.89Z" fill="url(#paint0_linear_1057_3295)" fill-opacity="0.9"></path> <defs> <linearGradient id="paint0_linear_1057_3295" x1="6.96481" y1="-28.839" x2="51.5373" y2="-23.9624" gradientUnits="userSpaceOnUse"> <stop stop-color="white" stop-opacity="0"></stop> <stop offset="0.453125" stop-color="white" stop-opacity="0.54"></stop> <stop offset="1" stop-color="white" stop-opacity="0"></stop> </linearGradient> </defs> </svg> 