<?xml version="1.0" encoding="UTF-8"?> <svg xmlns="http://www.w3.org/2000/svg" width="28" height="77" viewBox="0 0 28 77" fill="none"> <path d="M9.36 27.94C10.7533 27.94 11.9267 27.5367 12.88 26.73C13.9067 25.9233 14.7133 24.86 15.3 23.54C15.96 22.1467 16.4 20.57 16.62 18.81C16.84 17.05 16.95 15.2167 16.95 13.31C16.95 11.77 16.9133 10.2667 16.84 8.8C16.84 7.33333 16.6567 6.05 16.29 4.95C15.9967 3.77667 15.4467 2.82333 14.64 2.08999C13.9067 1.35666 12.8433 0.989995 11.45 0.989995C9.10333 1.21 7.49 1.50333 6.61 1.87C5.80333 2.23666 5.4 2.67666 5.4 3.19C5.47333 3.63 5.76667 4.18 6.28 4.84C6.86667 5.42667 7.34333 6.05 7.71 6.70999C8.15 7.36999 8.29667 8.10333 8.15 8.91C8.07667 9.64333 7.41667 10.3767 6.17 11.11C5.14333 11.77 4.22667 11.9533 3.42 11.66C2.61333 11.3667 1.99 10.8167 1.55 10.01C1.18333 9.13 1.03667 8.13999 1.11 7.04C1.18333 5.86666 1.58667 4.76667 2.32 3.74C3.05333 2.71333 4.15333 1.83333 5.62 1.09999C7.08667 0.366661 9.03 -5.24521e-06 11.45 -5.24521e-06C14.53 -5.24521e-06 16.9133 0.513328 18.6 1.53999C20.36 2.56666 21.6067 3.81333 22.34 5.28C23.1467 6.67333 23.5867 8.14 23.66 9.67999C23.8067 11.22 23.88 12.43 23.88 13.31C24.0267 23.43 20.1033 28.5267 12.11 28.6C14.1633 28.5267 16.1067 28.93 17.94 29.81C19.8467 30.6167 21.4967 31.9733 22.89 33.88C24.3567 35.7133 25.4933 38.17 26.3 41.25C27.1067 44.2567 27.51 47.96 27.51 52.36C27.51 55.44 27.3267 58.4833 26.96 61.49C26.5933 64.4233 25.8233 67.0267 24.65 69.3C23.55 71.5733 21.9367 73.4433 19.81 74.91C17.6833 76.3033 14.86 77 11.34 77C8.99333 77 7.05 76.6333 5.51 75.9C4.04333 75.1667 2.94333 74.2867 2.21 73.26C1.47667 72.2333 1.07333 71.17 1 70.07C0.926667 68.8967 1.07333 67.9067 1.44 67.1C1.88 66.22 2.50333 65.6333 3.31 65.34C4.11667 65.0467 5.03333 65.23 6.06 65.89C7.30667 66.6233 7.96667 67.3933 8.04 68.2C8.18667 68.9333 8.04 69.63 7.6 70.29C7.23333 70.95 6.75667 71.61 6.17 72.27C5.65667 72.8567 5.36333 73.4067 5.29 73.92C5.29 74.36 5.69333 74.7633 6.5 75.13C7.38 75.4967 8.99333 75.79 11.34 76.01C12.7333 76.01 13.8333 75.4233 14.64 74.25C15.52 73.0767 16.18 71.4633 16.62 69.41C17.06 67.2833 17.3167 64.79 17.39 61.93C17.5367 58.9967 17.61 55.8067 17.61 52.36C17.5367 44.1467 16.84 38.28 15.52 34.76C14.2733 31.24 12.22 29.48 9.36 29.48V27.94Z" fill="#F1F2B9"></path> <path d="M9.36 27.94C10.7533 27.94 11.9267 27.5367 12.88 26.73C13.9067 25.9233 14.7133 24.86 15.3 23.54C15.96 22.1467 16.4 20.57 16.62 18.81C16.84 17.05 16.95 15.2167 16.95 13.31C16.95 11.77 16.9133 10.2667 16.84 8.8C16.84 7.33333 16.6567 6.05 16.29 4.95C15.9967 3.77667 15.4467 2.82333 14.64 2.08999C13.9067 1.35666 12.8433 0.989995 11.45 0.989995C9.10333 1.21 7.49 1.50333 6.61 1.87C5.80333 2.23666 5.4 2.67666 5.4 3.19C5.47333 3.63 5.76667 4.18 6.28 4.84C6.86667 5.42667 7.34333 6.05 7.71 6.70999C8.15 7.36999 8.29667 8.10333 8.15 8.91C8.07667 9.64333 7.41667 10.3767 6.17 11.11C5.14333 11.77 4.22667 11.9533 3.42 11.66C2.61333 11.3667 1.99 10.8167 1.55 10.01C1.18333 9.13 1.03667 8.13999 1.11 7.04C1.18333 5.86666 1.58667 4.76667 2.32 3.74C3.05333 2.71333 4.15333 1.83333 5.62 1.09999C7.08667 0.366661 9.03 -5.24521e-06 11.45 -5.24521e-06C14.53 -5.24521e-06 16.9133 0.513328 18.6 1.53999C20.36 2.56666 21.6067 3.81333 22.34 5.28C23.1467 6.67333 23.5867 8.14 23.66 9.67999C23.8067 11.22 23.88 12.43 23.88 13.31C24.0267 23.43 20.1033 28.5267 12.11 28.6C14.1633 28.5267 16.1067 28.93 17.94 29.81C19.8467 30.6167 21.4967 31.9733 22.89 33.88C24.3567 35.7133 25.4933 38.17 26.3 41.25C27.1067 44.2567 27.51 47.96 27.51 52.36C27.51 55.44 27.3267 58.4833 26.96 61.49C26.5933 64.4233 25.8233 67.0267 24.65 69.3C23.55 71.5733 21.9367 73.4433 19.81 74.91C17.6833 76.3033 14.86 77 11.34 77C8.99333 77 7.05 76.6333 5.51 75.9C4.04333 75.1667 2.94333 74.2867 2.21 73.26C1.47667 72.2333 1.07333 71.17 1 70.07C0.926667 68.8967 1.07333 67.9067 1.44 67.1C1.88 66.22 2.50333 65.6333 3.31 65.34C4.11667 65.0467 5.03333 65.23 6.06 65.89C7.30667 66.6233 7.96667 67.3933 8.04 68.2C8.18667 68.9333 8.04 69.63 7.6 70.29C7.23333 70.95 6.75667 71.61 6.17 72.27C5.65667 72.8567 5.36333 73.4067 5.29 73.92C5.29 74.36 5.69333 74.7633 6.5 75.13C7.38 75.4967 8.99333 75.79 11.34 76.01C12.7333 76.01 13.8333 75.4233 14.64 74.25C15.52 73.0767 16.18 71.4633 16.62 69.41C17.06 67.2833 17.3167 64.79 17.39 61.93C17.5367 58.9967 17.61 55.8067 17.61 52.36C17.5367 44.1467 16.84 38.28 15.52 34.76C14.2733 31.24 12.22 29.48 9.36 29.48V27.94Z" fill="url(#paint0_linear_1057_3296)" fill-opacity="0.9"></path> <defs> <linearGradient id="paint0_linear_1057_3296" x1="6.46774" y1="-28.839" x2="47.4032" y2="-24.7336" gradientUnits="userSpaceOnUse"> <stop stop-color="white" stop-opacity="0"></stop> <stop offset="0.453125" stop-color="white" stop-opacity="0.54"></stop> <stop offset="1" stop-color="white" stop-opacity="0"></stop> </linearGradient> </defs> </svg> 