<?xml version="1.0" encoding="UTF-8"?> <svg xmlns="http://www.w3.org/2000/svg" width="41" height="77" viewBox="0 0 41 77" fill="none"> <path d="M0.11 56.65V52.14L18.81 -5.24521e-06H28.93V75.68H31.13V77H17.16V75.68H19.91V1.32L1.65 52.14L21.56 52.03C24.5667 52.03 27.17 52.03 29.37 52.03C31.57 52.03 33.4033 51.8833 34.87 51.59C36.3367 51.2967 37.4 50.8567 38.06 50.27C38.7933 49.61 39.16 48.73 39.16 47.63H40.04C40.1133 49.9033 39.5633 51.6633 38.39 52.91C37.29 54.1567 35.8233 55.0733 33.99 55.66C32.23 56.1733 30.25 56.4667 28.05 56.54C25.85 56.6133 23.6867 56.65 21.56 56.65H0.11Z" fill="#F1F2B9"></path> <path d="M0.11 56.65V52.14L18.81 -5.24521e-06H28.93V75.68H31.13V77H17.16V75.68H19.91V1.32L1.65 52.14L21.56 52.03C24.5667 52.03 27.17 52.03 29.37 52.03C31.57 52.03 33.4033 51.8833 34.87 51.59C36.3367 51.2967 37.4 50.8567 38.06 50.27C38.7933 49.61 39.16 48.73 39.16 47.63H40.04C40.1133 49.9033 39.5633 51.6633 38.39 52.91C37.29 54.1567 35.8233 55.0733 33.99 55.66C32.23 56.1733 30.25 56.4667 28.05 56.54C25.85 56.6133 23.6867 56.65 21.56 56.65H0.11Z" fill="url(#paint0_linear_1057_3297)" fill-opacity="0.9"></path> <defs> <linearGradient id="paint0_linear_1057_3297" x1="7.45601" y1="-28.839" x2="62.8034" y2="-21.2698" gradientUnits="userSpaceOnUse"> <stop stop-color="white" stop-opacity="0"></stop> <stop offset="0.453125" stop-color="white" stop-opacity="0.54"></stop> <stop offset="1" stop-color="white" stop-opacity="0"></stop> </linearGradient> </defs> </svg> 