<?xml version="1.0" encoding="UTF-8"?> <svg xmlns="http://www.w3.org/2000/svg" width="44" height="44" viewBox="0 0 44 44" fill="none"> <circle cx="22" cy="22" r="22" fill="#F1F2B9"></circle> <circle cx="22" cy="22" r="22" fill="url(#paint0_linear_57_10360)"></circle> <path d="M32.4406 25.9136C31.8912 25.6314 29.1544 24.2907 28.6454 24.1093C28.1363 23.9178 27.7633 23.827 27.3954 24.3915C27.0225 24.951 25.964 26.1959 25.6314 26.5739C25.3088 26.9469 24.9812 26.9922 24.4318 26.715C21.1659 25.082 19.0238 23.8018 16.8717 20.1074C16.3022 19.1246 17.4412 19.1952 18.5047 17.0733C18.6861 16.7003 18.5954 16.3828 18.4543 16.1006C18.3132 15.8183 17.2044 13.0866 16.7407 11.9727C16.2921 10.8891 15.8284 11.0403 15.4907 11.0202C15.1682 11 14.8002 11 14.4273 11C14.0543 11 13.4545 11.1411 12.9455 11.6905C12.4364 12.2499 11 13.5956 11 16.3274C11 19.0591 12.9908 21.7052 13.263 22.0781C13.5452 22.4511 17.1792 28.0557 22.7585 30.4699C26.2866 31.992 27.6676 32.123 29.4316 31.8609C30.5052 31.6997 32.7178 30.5203 33.1764 29.2149C33.6351 27.9146 33.6351 26.8007 33.499 26.5688C33.3629 26.3219 32.9899 26.1808 32.4406 25.9136Z" fill="black"></path> <defs> <linearGradient id="paint0_linear_57_10360" x1="16.5939" y1="9.56522" x2="38.0654" y2="16.7117" gradientUnits="userSpaceOnUse"> <stop stop-color="white" stop-opacity="0"></stop> <stop offset="0.453125" stop-color="white" stop-opacity="0.54"></stop> <stop offset="1" stop-color="white" stop-opacity="0"></stop> </linearGradient> </defs> </svg> 