<?xml version="1.0" encoding="UTF-8"?> <svg xmlns="http://www.w3.org/2000/svg" width="44" height="44" viewBox="0 0 44 44" fill="none"> <circle cx="22" cy="22" r="22" fill="#F1F2B9"></circle> <circle cx="22" cy="22" r="22" fill="url(#paint0_linear_55_9672)"></circle> <path d="M22.4969 18.6649C20.3853 18.6649 18.662 20.3881 18.662 22.4998C18.662 24.6114 20.3853 26.3347 22.4969 26.3347C24.6085 26.3347 26.3318 24.6114 26.3318 22.4998C26.3318 20.3881 24.6085 18.6649 22.4969 18.6649ZM33.9987 22.4998C33.9987 20.9117 34.0131 19.3381 33.9239 17.7529C33.8347 15.9117 33.4147 14.2776 32.0683 12.9312C30.7191 11.582 29.0879 11.1648 27.2467 11.0757C25.6586 10.9865 24.085 11.0009 22.4998 11.0009C20.9117 11.0009 19.3381 10.9865 17.7529 11.0757C15.9117 11.1648 14.2776 11.5849 12.9312 12.9312C11.582 14.2805 11.1648 15.9117 11.0757 17.7529C10.9865 19.341 11.0009 20.9146 11.0009 22.4998C11.0009 24.085 10.9865 25.6615 11.0757 27.2467C11.1648 29.0879 11.5849 30.7219 12.9312 32.0683C14.2805 33.4176 15.9117 33.8347 17.7529 33.9239C19.341 34.0131 20.9146 33.9987 22.4998 33.9987C24.0878 33.9987 25.6615 34.0131 27.2467 33.9239C29.0879 33.8347 30.7219 33.4147 32.0683 32.0683C33.4176 30.7191 33.8347 29.0879 33.9239 27.2467C34.016 25.6615 33.9987 24.0878 33.9987 22.4998V22.4998ZM22.4969 28.4003C19.2316 28.4003 16.5964 25.7651 16.5964 22.4998C16.5964 19.2345 19.2316 16.5993 22.4969 16.5993C25.7622 16.5993 28.3974 19.2345 28.3974 22.4998C28.3974 25.7651 25.7622 28.4003 22.4969 28.4003ZM28.6391 17.7357C27.8767 17.7357 27.261 17.12 27.261 16.3576C27.261 15.5952 27.8767 14.9796 28.6391 14.9796C29.4014 14.9796 30.0171 15.5952 30.0171 16.3576C30.0173 16.5387 29.9818 16.7179 29.9127 16.8852C29.8435 17.0525 29.742 17.2045 29.614 17.3325C29.486 17.4606 29.334 17.562 29.1667 17.6312C28.9994 17.7004 28.8201 17.7359 28.6391 17.7357V17.7357Z" fill="black"></path> <defs> <linearGradient id="paint0_linear_55_9672" x1="16.5939" y1="9.56522" x2="38.0654" y2="16.7117" gradientUnits="userSpaceOnUse"> <stop stop-color="white" stop-opacity="0"></stop> <stop offset="0.453125" stop-color="white" stop-opacity="0.54"></stop> <stop offset="1" stop-color="white" stop-opacity="0"></stop> </linearGradient> </defs> </svg> 