<?xml version="1.0" encoding="UTF-8"?> <svg xmlns="http://www.w3.org/2000/svg" width="44" height="44" viewBox="0 0 44 44" fill="none"> <circle cx="22" cy="22" r="22" fill="#F1F2B9"></circle> <circle cx="22" cy="22" r="22" fill="url(#paint0_linear_55_9675)"></circle> <path d="M32.9259 13.985L29.0024 32.4885C28.7063 33.7944 27.9344 34.1194 26.8374 33.5042L20.8592 29.0989L17.9746 31.8732C17.6554 32.1925 17.3884 32.4594 16.7731 32.4594L17.2026 26.371L28.2826 16.3589C28.7644 15.9294 28.1782 15.6914 27.5339 16.1209L13.8363 24.7458L7.93931 22.9001C6.65661 22.4996 6.63339 21.6174 8.2063 21.0022L31.2718 12.1161C32.3397 11.7156 33.2742 12.3541 32.9259 13.985V13.985Z" fill="black"></path> <defs> <linearGradient id="paint0_linear_55_9675" x1="16.5939" y1="9.56522" x2="38.0654" y2="16.7117" gradientUnits="userSpaceOnUse"> <stop stop-color="white" stop-opacity="0"></stop> <stop offset="0.453125" stop-color="white" stop-opacity="0.54"></stop> <stop offset="1" stop-color="white" stop-opacity="0"></stop> </linearGradient> </defs> </svg> 