<?xml version="1.0" encoding="UTF-8"?> <svg xmlns="http://www.w3.org/2000/svg" width="44" height="44" viewBox="0 0 44 44" fill="none"> <circle cx="22" cy="22" r="22" fill="#F1F2B9"></circle> <circle cx="22" cy="22" r="22" fill="url(#paint0_linear_55_9669)"></circle> <path fill-rule="evenodd" clip-rule="evenodd" d="M36.3119 15.185C36.5194 14.5025 36.3119 14 35.3182 14H32.037C31.202 14 30.817 14.4337 30.6083 14.9125C30.6083 14.9125 28.9395 18.9074 26.5758 21.5023C25.8109 22.2548 25.4634 22.4936 25.0459 22.4936C24.8371 22.4936 24.5234 22.2548 24.5234 21.5711V15.185C24.5234 14.365 24.2934 14 23.5984 14H18.4385C17.9173 14 17.6035 14.38 17.6035 14.7412C17.6035 15.5175 18.786 15.6975 18.9073 17.8824V22.6298C18.9073 23.671 18.716 23.8598 18.2985 23.8598C17.186 23.8598 14.4798 19.8461 12.8736 15.2537C12.5624 14.36 12.2474 14 11.4087 14H8.12498C7.1875 14 7 14.4337 7 14.9125C7 15.765 8.11248 19.9999 12.1811 25.601C14.8936 29.4259 18.7123 31.4996 22.1909 31.4996C24.2771 31.4996 24.5346 31.0396 24.5346 30.2459V27.3547C24.5346 26.4335 24.7321 26.2497 25.3934 26.2497C25.8809 26.2497 26.7146 26.4897 28.662 28.3334C30.887 30.5197 31.2532 31.4996 32.5057 31.4996H35.7869C36.7244 31.4996 37.1944 31.0396 36.9244 30.1297C36.6269 29.2247 35.5644 27.911 34.1557 26.3522C33.3907 25.4648 32.2432 24.5085 31.8945 24.0298C31.4082 23.4161 31.547 23.1423 31.8945 22.5961C31.8945 22.5961 35.8944 17.0637 36.3106 15.185H36.3119Z" fill="black"></path> <defs> <linearGradient id="paint0_linear_55_9669" x1="16.5939" y1="9.56522" x2="38.0654" y2="16.7117" gradientUnits="userSpaceOnUse"> <stop stop-color="white" stop-opacity="0"></stop> <stop offset="0.453125" stop-color="white" stop-opacity="0.54"></stop> <stop offset="1" stop-color="white" stop-opacity="0"></stop> </linearGradient> </defs> </svg> 