<?xml version="1.0" encoding="UTF-8"?> <svg xmlns="http://www.w3.org/2000/svg" width="685" height="509" viewBox="0 0 685 509" fill="none"> <circle r="9.5" transform="matrix(1 0 0 -1 642.5 81.5)" fill="black" fill-opacity="0.24"></circle> <circle r="9.17847" transform="matrix(1 0 0 -1 642.5 81.5)" stroke="url(#paint0_linear_17_3)" stroke-opacity="0.18" stroke-width="0.643066"></circle> <circle r="9.17847" transform="matrix(1 0 0 -1 642.5 81.5)" stroke="url(#paint1_linear_17_3)" stroke-opacity="0.32" stroke-width="0.643066"></circle> <circle cx="525.532" cy="155.48" r="116" transform="rotate(16 525.532 155.48)" fill="#F1F2B9"></circle> <circle cx="525.532" cy="155.48" r="116" transform="rotate(16 525.532 155.48)" fill="url(#paint2_linear_17_3)" fill-opacity="0.9"></circle> <circle cx="642.085" cy="81.566" r="4.5" transform="rotate(16 642.085 81.566)" fill="#F1F2B9"></circle> <circle cx="642.085" cy="81.566" r="4.5" transform="rotate(16 642.085 81.566)" fill="url(#paint3_linear_17_3)" fill-opacity="0.9"></circle> <g opacity="0.3"> <circle cx="531" cy="154" r="153.558" stroke="#F1F2B9" stroke-width="0.883437"></circle> <circle cx="531" cy="154" r="153.558" stroke="url(#paint4_linear_17_3)" stroke-opacity="0.9" stroke-width="0.883437"></circle> </g> <defs> <linearGradient id="paint0_linear_17_3" x1="8.84797" y1="-1.45459e-06" x2="11.0254" y2="21.2458" gradientUnits="userSpaceOnUse"> <stop stop-color="#F0D9D9"></stop> <stop offset="1" stop-color="#C4C4C4" stop-opacity="0.7"></stop> </linearGradient> <linearGradient id="paint1_linear_17_3" x1="1.34342" y1="-5.31709" x2="16.8918" y2="-2.70658" gradientUnits="userSpaceOnUse"> <stop stop-color="white" stop-opacity="0"></stop> <stop offset="0.526042" stop-color="white"></stop> <stop offset="1" stop-color="white" stop-opacity="0"></stop> </linearGradient> <linearGradient id="paint2_linear_17_3" x1="447.972" y1="-8.68918" x2="709.436" y2="78.7175" gradientUnits="userSpaceOnUse"> <stop stop-color="white" stop-opacity="0"></stop> <stop offset="0.453125" stop-color="white" stop-opacity="0.54"></stop> <stop offset="1" stop-color="white" stop-opacity="0"></stop> </linearGradient> <linearGradient id="paint3_linear_17_3" x1="639.077" y1="75.1974" x2="649.22" y2="78.5882" gradientUnits="userSpaceOnUse"> <stop stop-color="white" stop-opacity="0"></stop> <stop offset="0.453125" stop-color="white" stop-opacity="0.54"></stop> <stop offset="1" stop-color="white" stop-opacity="0"></stop> </linearGradient> <linearGradient id="paint4_linear_17_3" x1="428.032" y1="-63.9491" x2="775.148" y2="52.0907" gradientUnits="userSpaceOnUse"> <stop stop-color="white" stop-opacity="0"></stop> <stop offset="0.453125" stop-color="white" stop-opacity="0.54"></stop> <stop offset="1" stop-color="white" stop-opacity="0"></stop> </linearGradient> </defs> </svg> 