<?xml version="1.0" encoding="UTF-8"?> <svg xmlns="http://www.w3.org/2000/svg" width="293" height="92" viewBox="0 0 293 92" fill="none"> <path d="M2.85364 6.90881C1.49409 3.61727 3.91368 0 7.47494 0H285.217C288.858 0 291.278 3.76731 289.764 7.0788L277 35L272.943 43.9265C272.344 45.2437 272.345 46.7557 272.946 48.072L289.769 84.9235C291.281 88.2348 288.861 92 285.221 92H7.47494C3.91367 92 1.49409 88.3827 2.85364 85.0912L18.2116 47.9088C18.7165 46.6864 18.7165 45.3136 18.2116 44.0912L2.85364 6.90881Z" fill="#F1F2B9"></path> <path d="M2.85364 6.90881C1.49409 3.61727 3.91368 0 7.47494 0H285.217C288.858 0 291.278 3.76731 289.764 7.0788L277 35L272.943 43.9265C272.344 45.2437 272.345 46.7557 272.946 48.072L289.769 84.9235C291.281 88.2348 288.861 92 285.221 92H7.47494C3.91367 92 1.49409 88.3827 2.85364 85.0912L18.2116 47.9088C18.7165 46.6864 18.7165 45.3136 18.2116 44.0912L2.85364 6.90881Z" fill="url(#paint0_linear_10_682)"></path> <path d="M68.6727 52L72.8727 45.04L69.1927 38.66H71.4727L74.0727 43.18L76.7327 38.66H79.0127L75.1727 45.04L79.1927 52H76.9127L73.9927 46.9L70.9527 52H68.6727ZM83.94 40.4C85.26 39.08 86.9133 38.42 88.9 38.42C90.8867 38.42 92.54 39.08 93.86 40.4C95.18 41.72 95.84 43.3667 95.84 45.34C95.84 47.3133 95.18 48.96 93.86 50.28C92.54 51.6 90.8867 52.26 88.9 52.26C86.9133 52.26 85.26 51.6 83.94 50.28C82.62 48.96 81.96 47.3133 81.96 45.34C81.96 43.3667 82.62 41.72 83.94 40.4ZM85.38 48.98C86.3 49.9133 87.4733 50.38 88.9 50.38C90.3267 50.38 91.5 49.9133 92.42 48.98C93.34 48.0333 93.8 46.82 93.8 45.34C93.8 43.86 93.34 42.6533 92.42 41.72C91.5 40.7733 90.3267 40.3 88.9 40.3C87.4733 40.3 86.3 40.7733 85.38 41.72C84.46 42.6533 84 43.86 84 45.34C84 46.82 84.46 48.0333 85.38 48.98ZM107.281 52V46.52C106.067 46.6133 105.161 46.66 104.561 46.66C103.081 46.66 101.994 46.3867 101.301 45.84C100.434 45.16 100.001 44.08 100.001 42.6V38.66H102.041V42.3C102.041 43.3 102.281 43.9867 102.761 44.36C103.121 44.64 103.827 44.78 104.881 44.78C105.641 44.78 106.441 44.7333 107.281 44.64V38.66H109.321V52H107.281ZM113.05 38.66H115.53L118.97 45.78L122.09 38.66H124.21L118.19 52H116.07L117.79 48.22L113.05 38.66ZM133.964 41.78V39.38C135.084 38.74 136.371 38.42 137.824 38.42C139.771 38.42 141.331 39 142.504 40.16C143.824 41.4667 144.484 43.1867 144.484 45.32C144.484 47.4133 143.824 49.12 142.504 50.44C141.291 51.6533 139.711 52.26 137.764 52.26C136.351 52.26 135.084 51.9267 133.964 51.26V48.84C134.977 49.8667 136.244 50.38 137.764 50.38C139.124 50.38 140.204 49.98 141.004 49.18C141.804 48.38 142.257 47.3867 142.364 46.2H135.764V44.28H142.324C142.204 43.2 141.797 42.3 141.104 41.58C140.277 40.7267 139.171 40.3 137.784 40.3C136.344 40.3 135.071 40.7933 133.964 41.78ZM150.296 52H148.216L151.016 37.66L155.656 48.02L160.336 37.66L162.856 52H160.776L159.416 43.96L155.536 52.62L151.696 43.94L150.296 52ZM168.987 40.4C170.307 39.08 171.96 38.42 173.947 38.42C175.934 38.42 177.587 39.08 178.907 40.4C180.227 41.72 180.887 43.3667 180.887 45.34C180.887 47.3133 180.227 48.96 178.907 50.28C177.587 51.6 175.934 52.26 173.947 52.26C171.96 52.26 170.307 51.6 168.987 50.28C167.667 48.96 167.007 47.3133 167.007 45.34C167.007 43.3667 167.667 41.72 168.987 40.4ZM170.427 48.98C171.347 49.9133 172.52 50.38 173.947 50.38C175.374 50.38 176.547 49.9133 177.467 48.98C178.387 48.0333 178.847 46.82 178.847 45.34C178.847 43.86 178.387 42.6533 177.467 41.72C176.547 40.7733 175.374 40.3 173.947 40.3C172.52 40.3 171.347 40.7733 170.427 41.72C169.507 42.6533 169.047 43.86 169.047 45.34C169.047 46.82 169.507 48.0333 170.427 48.98ZM185.448 52V38.66H187.488V50.08H193.008V38.66H195.048V50.08H196.768V55H194.848V52H185.448ZM209.651 52V43.02L200.651 52.6V38.66H202.691V47.68L211.691 38.1V52H209.651ZM225.889 52V43.02L216.889 52.6V38.66H218.929V47.68L227.929 38.1V52H225.889Z" fill="#161616"></path> <defs> <linearGradient id="paint0_linear_10_682" x1="110.5" y1="20" x2="185.288" y2="99.2755" gradientUnits="userSpaceOnUse"> <stop stop-color="white" stop-opacity="0"></stop> <stop offset="0.453125" stop-color="white" stop-opacity="0.54"></stop> <stop offset="1" stop-color="white" stop-opacity="0"></stop> </linearGradient> </defs> </svg> 