<?xml version="1.0" encoding="UTF-8"?> <svg xmlns="http://www.w3.org/2000/svg" width="486" height="74" viewBox="0 0 486 74" fill="none"> <path d="M0.88 22V0.655998H5.552C7.38667 0.655998 8.82667 1.14666 9.872 2.128C10.9173 3.088 11.44 4.37867 11.44 6C11.44 8.09067 10.608 9.648 8.944 10.672C10.3093 10.8853 11.3867 11.4827 12.176 12.464C12.9653 13.4453 13.36 14.6293 13.36 16.016C13.36 17.8507 12.7413 19.312 11.504 20.4C10.288 21.4667 8.69867 22 6.736 22H0.88ZM2.288 1.936V10.32H5.68C6.896 10.32 7.86667 10.0213 8.592 9.424C9.53067 8.656 10 7.568 10 6.16C10 4.73067 9.52 3.62133 8.56 2.832C7.792 2.23467 6.608 1.936 5.008 1.936H2.288ZM2.288 11.6V20.72H5.872C6.53333 20.72 7.056 20.7093 7.44 20.688C7.824 20.6453 8.31467 20.528 8.912 20.336C9.53067 20.144 10.064 19.8453 10.512 19.44C11.4293 18.6293 11.888 17.5413 11.888 16.176C11.888 14.2347 11.1307 12.912 9.616 12.208C8.69867 11.8027 7.36533 11.6 5.616 11.6H2.288ZM24.8665 8.944H26.1465V15.152L32.7385 8.944H34.4665L27.8105 15.152L34.9785 22H33.1225L26.8505 16.016L26.1465 16.688V22H24.8665V8.944ZM38.049 10.64C39.3717 9.31733 41.0037 8.656 42.945 8.656C44.8863 8.656 46.5077 9.31733 47.809 10.64C49.1317 11.9413 49.793 13.5627 49.793 15.504C49.793 17.4453 49.1317 19.0773 47.809 20.4C46.5077 21.7013 44.8863 22.352 42.945 22.352C41.0037 22.352 39.3717 21.7013 38.049 20.4C36.7477 19.0773 36.097 17.4453 36.097 15.504C36.097 13.5627 36.7477 11.9413 38.049 10.64ZM39.009 19.504C40.0757 20.592 41.3877 21.136 42.945 21.136C44.5023 21.136 45.8037 20.592 46.849 19.504C47.9157 18.416 48.449 17.0827 48.449 15.504C48.449 13.9253 47.9157 12.592 46.849 11.504C45.8037 10.416 44.5023 9.872 42.945 9.872C41.3877 9.872 40.0757 10.416 39.009 11.504C37.9637 12.592 37.441 13.9253 37.441 15.504C37.441 17.0827 37.9637 18.416 39.009 19.504ZM52.018 22L55.09 8.144L60.306 19.92L65.522 8.144L68.594 22H67.25L65.138 11.792L60.306 22.8L55.474 11.792L53.362 22H52.018ZM82.303 11.216V8.944H83.583V22H82.303V19.664C81.1297 21.456 79.4337 22.352 77.215 22.352C75.4443 22.352 73.9403 21.7227 72.703 20.464C71.4657 19.2053 70.847 17.5413 70.847 15.472C70.847 13.4453 71.4337 11.8027 72.607 10.544C73.7803 9.28533 75.3163 8.656 77.215 8.656C79.391 8.656 81.087 9.50933 82.303 11.216ZM77.279 9.872C75.8923 9.872 74.6977 10.3733 73.695 11.376C72.6923 12.3573 72.191 13.6907 72.191 15.376C72.191 16.9333 72.6497 18.288 73.567 19.44C74.4843 20.5707 75.7323 21.136 77.311 21.136C78.8683 21.136 80.095 20.5813 80.991 19.472C81.9083 18.3413 82.367 16.976 82.367 15.376C82.367 13.6053 81.8443 12.2507 80.799 11.312C79.7537 10.352 78.5803 9.872 77.279 9.872ZM88.179 22V8.944H89.459V14.704H96.819V8.944H98.099V22H96.819V15.92H89.459V22H88.179ZM103.606 8.944H112.182V20.784H114.102V25.52H112.886V22H101.878V25.52H100.662V20.784C101.729 20.72 102.529 20.144 103.062 19.056C103.425 18.3093 103.606 17.136 103.606 15.536V8.944ZM110.902 20.784V10.16H104.886V15.92C104.886 18.224 104.332 19.8453 103.222 20.784H110.902ZM128.484 15.632H117.316C117.316 17.2533 117.817 18.576 118.82 19.6C119.844 20.624 121.071 21.136 122.5 21.136C123.524 21.136 124.431 20.8693 125.22 20.336C126.009 19.7813 126.617 19.056 127.044 18.16L128.132 18.8C127.641 19.7387 126.927 20.5707 125.988 21.296C125.049 22 123.855 22.352 122.404 22.352C120.42 22.352 118.852 21.712 117.7 20.432C116.548 19.1307 115.972 17.4987 115.972 15.536C115.972 13.3813 116.591 11.696 117.828 10.48C119.087 9.264 120.58 8.656 122.308 8.656C124.079 8.656 125.551 9.30667 126.724 10.608C127.897 11.9093 128.484 13.584 128.484 15.632ZM117.412 14.416H127.14C126.969 13.0933 126.436 12.0053 125.54 11.152C124.665 10.2987 123.588 9.872 122.308 9.872C121.007 9.872 119.908 10.3093 119.012 11.184C118.116 12.0373 117.583 13.1147 117.412 14.416ZM151.422 15.632H140.254C140.254 17.2533 140.755 18.576 141.758 19.6C142.782 20.624 144.008 21.136 145.438 21.136C146.462 21.136 147.368 20.8693 148.158 20.336C148.947 19.7813 149.555 19.056 149.982 18.16L151.07 18.8C150.579 19.7387 149.864 20.5707 148.926 21.296C147.987 22 146.792 22.352 145.342 22.352C143.358 22.352 141.79 21.712 140.638 20.432C139.486 19.1307 138.91 17.4987 138.91 15.536C138.91 13.3813 139.528 11.696 140.766 10.48C142.024 9.264 143.518 8.656 145.246 8.656C147.016 8.656 148.488 9.30667 149.662 10.608C150.835 11.9093 151.422 13.584 151.422 15.632ZM140.35 14.416H150.078C149.907 13.0933 149.374 12.0053 148.478 11.152C147.603 10.2987 146.526 9.872 145.246 9.872C143.944 9.872 142.846 10.3093 141.95 11.184C141.054 12.0373 140.52 13.1147 140.35 14.416ZM165.674 10.32V12.016C164.437 10.5867 162.933 9.872 161.162 9.872C159.584 9.872 158.282 10.416 157.258 11.504C156.234 12.5707 155.722 13.9147 155.722 15.536C155.722 17.2853 156.266 18.6613 157.354 19.664C158.442 20.6453 159.69 21.136 161.098 21.136C162.826 21.136 164.405 20.3573 165.834 18.8V20.528C164.469 21.744 162.88 22.352 161.066 22.352C159.104 22.352 157.493 21.712 156.234 20.432C154.997 19.1307 154.378 17.5093 154.378 15.568C154.378 13.584 154.997 11.9413 156.234 10.64C157.472 9.31733 159.114 8.656 161.162 8.656C162.848 8.656 164.352 9.21067 165.674 10.32ZM171.863 22V10.16H167.319V8.944H177.687V10.16H173.143V22H171.863ZM180.242 8.944H181.522V14.384H184.626C186.119 14.384 187.228 14.7893 187.954 15.6C188.572 16.2827 188.882 17.1467 188.882 18.192C188.882 19.3653 188.498 20.304 187.73 21.008C187.026 21.6693 185.98 22 184.594 22H180.242V8.944ZM181.522 20.784H184.594C185.49 20.784 186.172 20.5813 186.642 20.176C187.239 19.6853 187.538 19.024 187.538 18.192C187.538 17.3173 187.228 16.6453 186.61 16.176C186.098 15.792 185.404 15.6 184.53 15.6H181.522V20.784Z" fill="#D9D9D9"></path> <path d="M199.739 8.72H210.427V22H208.123V10.832H202.043V22H199.739V8.72ZM217.074 20.144V29.36H214.77V8.72H217.074V10.576C218.247 9.12533 219.762 8.4 221.618 8.4C223.602 8.4 225.17 9.104 226.322 10.512C227.495 11.8987 228.082 13.5413 228.082 15.44C228.082 17.36 227.506 19.0027 226.354 20.368C225.202 21.712 223.655 22.384 221.714 22.384C219.772 22.384 218.226 21.6373 217.074 20.144ZM221.394 20.336C222.695 20.336 223.74 19.8667 224.53 18.928C225.319 17.968 225.714 16.8053 225.714 15.44C225.714 13.904 225.276 12.688 224.402 11.792C223.527 10.896 222.514 10.448 221.362 10.448C220.21 10.448 219.186 10.896 218.29 11.792C217.394 12.688 216.946 13.8933 216.946 15.408C216.946 16.7947 217.351 17.968 218.162 18.928C218.994 19.8667 220.071 20.336 221.394 20.336ZM242.846 20.4C241.523 21.7227 239.848 22.384 237.822 22.384C235.795 22.384 234.11 21.7227 232.766 20.4C231.443 19.0773 230.782 17.4133 230.782 15.408C230.782 13.3813 231.443 11.7067 232.766 10.384C234.11 9.06133 235.795 8.4 237.822 8.4C239.848 8.4 241.523 9.06133 242.846 10.384C244.19 11.7067 244.862 13.3813 244.862 15.408C244.862 17.4133 244.19 19.0773 242.846 20.4ZM241.118 11.76C240.222 10.8853 239.123 10.448 237.822 10.448C236.52 10.448 235.411 10.896 234.494 11.792C233.598 12.6667 233.15 13.872 233.15 15.408C233.15 16.944 233.608 18.1493 234.526 19.024C235.443 19.8987 236.542 20.336 237.822 20.336C239.102 20.336 240.2 19.8987 241.118 19.024C242.035 18.1493 242.494 16.944 242.494 15.408C242.494 13.8507 242.035 12.6347 241.118 11.76ZM255.467 29.36V22.224C253.141 22.224 251.275 21.648 249.867 20.496C248.331 19.2587 247.563 17.5413 247.563 15.344C247.563 13.168 248.32 11.4613 249.835 10.224C251.2 9.072 253.077 8.496 255.467 8.496V0.655998H257.771V8.496C260.16 8.496 262.037 9.072 263.403 10.224C264.917 11.4613 265.675 13.168 265.675 15.344C265.675 17.5413 264.907 19.2587 263.371 20.496C261.963 21.648 260.096 22.224 257.771 22.224V29.36H255.467ZM255.467 20.176V10.544C253.952 10.544 252.768 10.8213 251.915 11.376C250.592 12.208 249.931 13.5307 249.931 15.344C249.931 17.0507 250.549 18.3413 251.787 19.216C252.683 19.856 253.909 20.176 255.467 20.176ZM257.771 10.544V20.176C259.328 20.176 260.555 19.856 261.451 19.216C262.688 18.3413 263.307 17.0507 263.307 15.344C263.307 13.5307 262.645 12.208 261.323 11.376C260.469 10.8213 259.285 10.544 257.771 10.544ZM279.063 17.552L280.983 18.608C280.535 19.4613 279.991 20.176 279.351 20.752C278.135 21.84 276.663 22.384 274.935 22.384C273.143 22.384 271.597 21.808 270.295 20.656C269.015 19.4827 268.375 17.744 268.375 15.44C268.375 13.4133 268.951 11.7387 270.103 10.416C271.277 9.072 272.845 8.4 274.807 8.4C277.026 8.4 278.701 9.21067 279.831 10.832C280.727 12.112 281.143 13.776 281.079 15.824H270.743C270.765 17.168 271.181 18.256 271.991 19.088C272.802 19.92 273.794 20.336 274.967 20.336C276.013 20.336 276.919 20.016 277.687 19.376C278.285 18.864 278.743 18.256 279.063 17.552ZM270.903 13.904H278.711C278.519 12.8587 278.061 12.0267 277.335 11.408C276.631 10.768 275.789 10.448 274.807 10.448C273.847 10.448 272.994 10.7787 272.247 11.44C271.522 12.08 271.074 12.9013 270.903 13.904ZM295.014 9.68V12.432C293.968 11.1093 292.582 10.448 290.854 10.448C289.552 10.448 288.443 10.896 287.526 11.792C286.608 12.6667 286.15 13.872 286.15 15.408C286.15 16.944 286.608 18.1493 287.526 19.024C288.443 19.8987 289.542 20.336 290.822 20.336C292.528 20.336 293.958 19.6427 295.11 18.256V21.008C293.851 21.9253 292.443 22.384 290.885 22.384C288.816 22.384 287.11 21.7333 285.766 20.432C284.443 19.1093 283.782 17.4453 283.782 15.44C283.782 13.4133 284.454 11.7387 285.798 10.416C287.142 9.072 288.838 8.4 290.885 8.4C292.422 8.4 293.798 8.82667 295.014 9.68ZM309.045 9.68V12.432C307.999 11.1093 306.613 10.448 304.885 10.448C303.583 10.448 302.474 10.896 301.557 11.792C300.639 12.6667 300.181 13.872 300.181 15.408C300.181 16.944 300.639 18.1493 301.557 19.024C302.474 19.8987 303.573 20.336 304.853 20.336C306.559 20.336 307.989 19.6427 309.141 18.256V21.008C307.882 21.9253 306.474 22.384 304.917 22.384C302.847 22.384 301.141 21.7333 299.797 20.432C298.474 19.1093 297.813 17.4453 297.813 15.44C297.813 13.4133 298.485 11.7387 299.829 10.416C301.173 9.072 302.869 8.4 304.917 8.4C306.453 8.4 307.829 8.82667 309.045 9.68ZM312.676 8.72H314.98V17.488L324.068 7.696V22H321.764V13.136L312.676 22.928V8.72ZM339.658 20.4C338.335 21.7227 336.661 22.384 334.634 22.384C332.607 22.384 330.922 21.7227 329.578 20.4C328.255 19.0773 327.594 17.4133 327.594 15.408C327.594 13.3813 328.255 11.7067 329.578 10.384C330.922 9.06133 332.607 8.4 334.634 8.4C336.661 8.4 338.335 9.06133 339.658 10.384C341.002 11.7067 341.674 13.3813 341.674 15.408C341.674 17.4133 341.002 19.0773 339.658 20.4ZM337.93 11.76C337.034 10.8853 335.935 10.448 334.634 10.448C333.333 10.448 332.223 10.896 331.306 11.792C330.41 12.6667 329.962 13.872 329.962 15.408C329.962 16.944 330.421 18.1493 331.338 19.024C332.255 19.8987 333.354 20.336 334.634 20.336C335.914 20.336 337.013 19.8987 337.93 19.024C338.847 18.1493 339.306 16.944 339.306 15.408C339.306 13.8507 338.847 12.6347 337.93 11.76ZM345.207 22V8.72H347.511V14.16H353.783V8.72H356.087V22H353.783V16.272H347.511V22H345.207ZM370.602 10.608V8.72H372.906V22H370.602V20.144C369.45 21.6373 367.935 22.384 366.058 22.384C364.266 22.384 362.741 21.7653 361.482 20.528C360.223 19.2907 359.594 17.5627 359.594 15.344C359.594 13.168 360.213 11.472 361.45 10.256C362.709 9.01867 364.245 8.4 366.058 8.4C367.978 8.4 369.493 9.136 370.602 10.608ZM366.314 10.448C365.098 10.448 364.063 10.8853 363.21 11.76C362.378 12.6133 361.962 13.808 361.962 15.344C361.962 16.816 362.346 18.0213 363.114 18.96C363.903 19.8773 364.97 20.336 366.314 20.336C367.658 20.336 368.725 19.856 369.514 18.896C370.325 17.936 370.73 16.7627 370.73 15.376C370.73 13.7973 370.282 12.5813 369.386 11.728C368.49 10.8747 367.466 10.448 366.314 10.448ZM387.318 8.72V22H385.014V10.832H380.278V16.816C380.278 18.544 379.936 19.824 379.254 20.656C378.486 21.5947 377.419 22.064 376.054 22.064C375.883 22.064 375.648 22.0427 375.35 22V19.888C375.563 19.9307 375.734 19.952 375.862 19.952C376.608 19.952 377.163 19.664 377.526 19.088C377.824 18.6187 377.974 17.8613 377.974 16.816V8.72H387.318ZM391.676 22V8.72H393.98V13.808H396.348C398.183 13.808 399.527 14.2453 400.38 15.12C401.063 15.8027 401.404 16.7307 401.404 17.904C401.404 19.1413 401.009 20.1333 400.22 20.88C399.431 21.6267 398.129 22 396.316 22H391.676ZM393.98 19.952H396.124C397.084 19.952 397.767 19.8347 398.172 19.6C398.748 19.216 399.036 18.6507 399.036 17.904C399.036 17.136 398.759 16.5813 398.204 16.24C397.82 15.984 397.137 15.856 396.156 15.856H393.98V19.952ZM404.489 22V8.72H406.793V14.16H413.065V8.72H415.369V22H413.065V16.272H406.793V22H404.489ZM419.707 22V8.72H422.011V13.808H424.379C426.214 13.808 427.558 14.2453 428.411 15.12C429.094 15.8027 429.435 16.7307 429.435 17.904C429.435 19.1413 429.041 20.1333 428.251 20.88C427.462 21.6267 426.161 22 424.347 22H419.707ZM422.011 19.952H424.155C425.115 19.952 425.798 19.8347 426.203 19.6C426.779 19.216 427.067 18.6507 427.067 17.904C427.067 17.136 426.79 16.5813 426.235 16.24C425.851 15.984 425.169 15.856 424.187 15.856H422.011V19.952ZM431.035 22V8.72H433.339V22H431.035ZM447.532 17.552L449.452 18.608C449.004 19.4613 448.46 20.176 447.82 20.752C446.604 21.84 445.132 22.384 443.404 22.384C441.612 22.384 440.065 21.808 438.764 20.656C437.484 19.4827 436.844 17.744 436.844 15.44C436.844 13.4133 437.42 11.7387 438.572 10.416C439.745 9.072 441.313 8.4 443.276 8.4C445.495 8.4 447.169 9.21067 448.3 10.832C449.196 12.112 449.612 13.776 449.548 15.824H439.212C439.233 17.168 439.649 18.256 440.46 19.088C441.271 19.92 442.263 20.336 443.436 20.336C444.481 20.336 445.388 20.016 446.156 19.376C446.753 18.864 447.212 18.256 447.532 17.552ZM439.372 13.904H447.18C446.988 12.8587 446.529 12.0267 445.804 11.408C445.1 10.768 444.257 10.448 443.276 10.448C442.316 10.448 441.463 10.7787 440.716 11.44C439.991 12.08 439.543 12.9013 439.372 13.904ZM461.127 22V0.655998H465.479C468.764 0.655998 471.388 1.488 473.351 3.152C475.783 5.17867 476.999 7.90933 476.999 11.344C476.999 14.672 475.751 17.4027 473.255 19.536C472.231 20.4107 471.132 21.04 469.959 21.424C468.786 21.808 467.282 22 465.447 22H461.127ZM463.495 2.896V19.76H465.575C468.114 19.76 470.151 19.12 471.687 17.84C473.607 16.2187 474.567 14.0533 474.567 11.344C474.567 8.784 473.746 6.736 472.103 5.2C470.46 3.664 468.284 2.896 465.575 2.896H463.495ZM483.266 0.655998H485.634V16.016C485.634 16.784 485.612 17.4027 485.57 17.872C485.548 18.32 485.431 18.8533 485.218 19.472C485.026 20.0907 484.727 20.6133 484.322 21.04C483.49 21.936 482.359 22.384 480.93 22.384C479.308 22.384 478.039 21.8613 477.122 20.816L478.434 18.96C479.159 19.7493 479.97 20.144 480.866 20.144C481.527 20.144 482.06 19.9413 482.466 19.536C482.999 19.0027 483.266 17.8507 483.266 16.08V0.655998ZM0.176 52.72H2.48V61.488L11.568 51.696V66H9.264V57.136L0.176 66.928V52.72ZM33.7948 53.68V56.432C32.7494 55.1093 31.3628 54.448 29.6348 54.448C28.3334 54.448 27.2241 54.896 26.3068 55.792C25.3894 56.6667 24.9308 57.872 24.9308 59.408C24.9308 60.944 25.3894 62.1493 26.3068 63.024C27.2241 63.8987 28.3228 64.336 29.6028 64.336C31.3094 64.336 32.7388 63.6427 33.8908 62.256V65.008C32.6321 65.9253 31.2241 66.384 29.6667 66.384C27.5974 66.384 25.8908 65.7333 24.5468 64.432C23.2241 63.1093 22.5628 61.4453 22.5628 59.44C22.5628 57.4133 23.2348 55.7387 24.5788 54.416C25.9228 53.072 27.6188 52.4 29.6667 52.4C31.2028 52.4 32.5788 52.8267 33.7948 53.68ZM37.426 66V52.72H39.73V63.888H45.682V52.72H47.986V63.888H50.162V69.52H48.05V66H37.426ZM62.4383 61.552L64.3583 62.608C63.9103 63.4613 63.3663 64.176 62.7263 64.752C61.5103 65.84 60.0383 66.384 58.3103 66.384C56.5183 66.384 54.9716 65.808 53.6703 64.656C52.3903 63.4827 51.7503 61.744 51.7503 59.44C51.7503 57.4133 52.3263 55.7387 53.4783 54.416C54.6516 53.072 56.2196 52.4 58.1823 52.4C60.4009 52.4 62.0756 53.2107 63.2063 54.832C64.1023 56.112 64.5183 57.776 64.4543 59.824H54.1183C54.1396 61.168 54.5556 62.256 55.3663 63.088C56.1769 63.92 57.1689 64.336 58.3423 64.336C59.3876 64.336 60.2943 64.016 61.0623 63.376C61.6596 62.864 62.1183 62.256 62.4383 61.552ZM54.2783 57.904H62.0863C61.8943 56.8587 61.4356 56.0267 60.7103 55.408C60.0063 54.768 59.1636 54.448 58.1823 54.448C57.2223 54.448 56.3689 54.7787 55.6223 55.44C54.8969 56.08 54.4489 56.9013 54.2783 57.904ZM67.9885 66V52.72H70.2925V58.16H76.5645V52.72H78.8685V66H76.5645V60.272H70.2925V66H67.9885ZM83.2073 52.72H85.5113V61.488L94.5993 51.696V66H92.2953V57.136L83.2073 66.928V52.72ZM106.061 66V60.784C104.803 60.976 103.757 61.072 102.925 61.072C101.475 61.072 100.397 60.752 99.6933 60.112C98.9466 59.4507 98.5733 58.3627 98.5733 56.848V52.72H100.877V56.528C100.877 57.2533 100.973 57.776 101.165 58.096C101.464 58.672 102.136 58.96 103.181 58.96C104.12 58.96 105.08 58.864 106.061 58.672V52.72H108.365V66H106.061ZM122.563 61.552L124.483 62.608C124.035 63.4613 123.491 64.176 122.851 64.752C121.635 65.84 120.163 66.384 118.435 66.384C116.643 66.384 115.097 65.808 113.795 64.656C112.515 63.4827 111.875 61.744 111.875 59.44C111.875 57.4133 112.451 55.7387 113.603 54.416C114.777 53.072 116.345 52.4 118.307 52.4C120.526 52.4 122.201 53.2107 123.331 54.832C124.227 56.112 124.643 57.776 124.579 59.824H114.243C114.265 61.168 114.681 62.256 115.491 63.088C116.302 63.92 117.294 64.336 118.467 64.336C119.513 64.336 120.419 64.016 121.187 63.376C121.785 62.864 122.243 62.256 122.563 61.552ZM114.403 57.904H122.211C122.019 56.8587 121.561 56.0267 120.835 55.408C120.131 54.768 119.289 54.448 118.307 54.448C117.347 54.448 116.494 54.7787 115.747 55.44C115.022 56.08 114.574 56.9013 114.403 57.904ZM138.514 53.68V56.432C137.468 55.1093 136.082 54.448 134.354 54.448C133.052 54.448 131.943 54.896 131.026 55.792C130.108 56.6667 129.65 57.872 129.65 59.408C129.65 60.944 130.108 62.1493 131.026 63.024C131.943 63.8987 133.042 64.336 134.322 64.336C136.028 64.336 137.458 63.6427 138.61 62.256V65.008C137.351 65.9253 135.943 66.384 134.385 66.384C132.316 66.384 130.61 65.7333 129.266 64.432C127.943 63.1093 127.282 61.4453 127.282 59.44C127.282 57.4133 127.954 55.7387 129.298 54.416C130.642 53.072 132.338 52.4 134.385 52.4C135.922 52.4 137.298 52.8267 138.514 53.68ZM142.145 52.72H144.449V58.16L149.825 52.72H152.641L146.881 58.64L153.345 66H150.337L145.153 60.176L144.449 60.848V66H142.145V52.72ZM166.252 64.4C164.929 65.7227 163.254 66.384 161.228 66.384C159.201 66.384 157.516 65.7227 156.172 64.4C154.849 63.0773 154.188 61.4133 154.188 59.408C154.188 57.3813 154.849 55.7067 156.172 54.384C157.516 53.0613 159.201 52.4 161.228 52.4C163.254 52.4 164.929 53.0613 166.252 54.384C167.596 55.7067 168.268 57.3813 168.268 59.408C168.268 61.4133 167.596 63.0773 166.252 64.4ZM164.524 55.76C163.628 54.8853 162.529 54.448 161.228 54.448C159.926 54.448 158.817 54.896 157.9 55.792C157.004 56.6667 156.556 57.872 156.556 59.408C156.556 60.944 157.014 62.1493 157.932 63.024C158.849 63.8987 159.948 64.336 161.228 64.336C162.508 64.336 163.606 63.8987 164.524 63.024C165.441 62.1493 165.9 60.944 165.9 59.408C165.9 57.8507 165.441 56.6347 164.524 55.76ZM181.657 61.552L183.577 62.608C183.129 63.4613 182.585 64.176 181.945 64.752C180.729 65.84 179.257 66.384 177.529 66.384C175.737 66.384 174.19 65.808 172.889 64.656C171.609 63.4827 170.969 61.744 170.969 59.44C170.969 57.4133 171.545 55.7387 172.697 54.416C173.87 53.072 175.438 52.4 177.401 52.4C179.62 52.4 181.294 53.2107 182.425 54.832C183.321 56.112 183.737 57.776 183.673 59.824H173.337C173.358 61.168 173.774 62.256 174.585 63.088C175.396 63.92 176.388 64.336 177.561 64.336C178.606 64.336 179.513 64.016 180.281 63.376C180.878 62.864 181.337 62.256 181.657 61.552ZM173.497 57.904H181.305C181.113 56.8587 180.654 56.0267 179.929 55.408C179.225 54.768 178.382 54.448 177.401 54.448C176.441 54.448 175.588 54.7787 174.841 55.44C174.116 56.08 173.668 56.9013 173.497 57.904ZM205.908 64.4C204.585 65.7227 202.911 66.384 200.884 66.384C198.857 66.384 197.172 65.7227 195.828 64.4C194.505 63.0773 193.844 61.4133 193.844 59.408C193.844 57.3813 194.505 55.7067 195.828 54.384C197.172 53.0613 198.857 52.4 200.884 52.4C202.911 52.4 204.585 53.0613 205.908 54.384C207.252 55.7067 207.924 57.3813 207.924 59.408C207.924 61.4133 207.252 63.0773 205.908 64.4ZM204.18 55.76C203.284 54.8853 202.185 54.448 200.884 54.448C199.583 54.448 198.473 54.896 197.556 55.792C196.66 56.6667 196.212 57.872 196.212 59.408C196.212 60.944 196.671 62.1493 197.588 63.024C198.505 63.8987 199.604 64.336 200.884 64.336C202.164 64.336 203.263 63.8987 204.18 63.024C205.097 62.1493 205.556 60.944 205.556 59.408C205.556 57.8507 205.097 56.6347 204.18 55.76ZM221.697 43.6H224.257C224.023 44.3893 223.617 45.0613 223.041 45.616C222.487 46.1493 221.975 46.512 221.505 46.704C221.057 46.896 220.524 47.0667 219.905 47.216C219.799 47.2373 219.543 47.3013 219.137 47.408C218.732 47.4933 218.423 47.568 218.209 47.632C217.996 47.696 217.719 47.7813 217.377 47.888C217.036 47.9947 216.727 48.1227 216.449 48.272C216.172 48.4213 215.916 48.5813 215.681 48.752C214.871 49.3707 214.209 50.2347 213.697 51.344C213.207 52.432 212.94 53.5947 212.897 54.832H212.961C213.921 53.2107 215.532 52.4 217.793 52.4C219.777 52.4 221.42 53.072 222.721 54.416C224.044 55.76 224.705 57.424 224.705 59.408C224.705 61.4133 224.033 63.0773 222.689 64.4C221.345 65.7227 219.596 66.384 217.441 66.384C215.585 66.384 214.06 65.8293 212.865 64.72C211.372 63.3547 210.625 61.072 210.625 57.872C210.625 52.304 211.884 48.656 214.401 46.928C214.593 46.8 214.796 46.6827 215.009 46.576C215.223 46.448 215.447 46.3413 215.681 46.256C215.937 46.1493 216.151 46.064 216.321 46C216.492 45.9147 216.727 45.84 217.025 45.776C217.345 45.6907 217.559 45.6373 217.665 45.616C217.793 45.5733 218.028 45.52 218.369 45.456C218.732 45.3707 218.956 45.3173 219.041 45.296C219.895 45.104 220.513 44.88 220.897 44.624C221.281 44.3467 221.548 44.0053 221.697 43.6ZM220.961 55.76C220.065 54.8853 218.967 54.448 217.665 54.448C216.364 54.448 215.255 54.896 214.337 55.792C213.441 56.6667 212.993 57.872 212.993 59.408C212.993 60.944 213.452 62.1493 214.369 63.024C215.287 63.8987 216.385 64.336 217.665 64.336C218.945 64.336 220.044 63.8987 220.961 63.024C221.879 62.1493 222.337 60.944 222.337 59.408C222.337 57.8507 221.879 56.6347 220.961 55.76ZM239.471 64.4C238.148 65.7227 236.473 66.384 234.447 66.384C232.42 66.384 230.735 65.7227 229.391 64.4C228.068 63.0773 227.407 61.4133 227.407 59.408C227.407 57.3813 228.068 55.7067 229.391 54.384C230.735 53.0613 232.42 52.4 234.447 52.4C236.473 52.4 238.148 53.0613 239.471 54.384C240.815 55.7067 241.487 57.3813 241.487 59.408C241.487 61.4133 240.815 63.0773 239.471 64.4ZM237.743 55.76C236.847 54.8853 235.748 54.448 234.447 54.448C233.145 54.448 232.036 54.896 231.119 55.792C230.223 56.6667 229.775 57.872 229.775 59.408C229.775 60.944 230.233 62.1493 231.151 63.024C232.068 63.8987 233.167 64.336 234.447 64.336C235.727 64.336 236.825 63.8987 237.743 63.024C238.66 62.1493 239.119 60.944 239.119 59.408C239.119 57.8507 238.66 56.6347 237.743 55.76ZM247.324 64.144V73.36H245.02V52.72H247.324V54.576C248.497 53.1253 250.012 52.4 251.868 52.4C253.852 52.4 255.42 53.104 256.572 54.512C257.745 55.8987 258.332 57.5413 258.332 59.44C258.332 61.36 257.756 63.0027 256.604 64.368C255.452 65.712 253.905 66.384 251.964 66.384C250.022 66.384 248.476 65.6373 247.324 64.144ZM251.644 64.336C252.945 64.336 253.99 63.8667 254.78 62.928C255.569 61.968 255.964 60.8053 255.964 59.44C255.964 57.904 255.526 56.688 254.652 55.792C253.777 54.896 252.764 54.448 251.612 54.448C250.46 54.448 249.436 54.896 248.54 55.792C247.644 56.688 247.196 57.8933 247.196 59.408C247.196 60.7947 247.601 61.968 248.412 62.928C249.244 63.8667 250.321 64.336 251.644 64.336ZM261.832 73.36L266.056 64.752L259.944 52.72H262.568L267.272 62.224L271.592 52.72H274.152L264.391 73.36H261.832ZM277.542 52.72H286.886V63.888H288.87V69.52H286.758V66H276.646V69.52H274.534V63.888C275.644 63.8667 276.465 63.2907 276.998 62.16C277.361 61.4133 277.542 60.24 277.542 58.64V52.72ZM284.582 63.888V54.832H279.846V59.824C279.846 61.5947 279.313 62.9493 278.246 63.888H284.582ZM302.533 64.4C301.21 65.7227 299.536 66.384 297.509 66.384C295.482 66.384 293.797 65.7227 292.453 64.4C291.13 63.0773 290.469 61.4133 290.469 59.408C290.469 57.3813 291.13 55.7067 292.453 54.384C293.797 53.0613 295.482 52.4 297.509 52.4C299.536 52.4 301.21 53.0613 302.533 54.384C303.877 55.7067 304.549 57.3813 304.549 59.408C304.549 61.4133 303.877 63.0773 302.533 64.4ZM300.805 55.76C299.909 54.8853 298.81 54.448 297.509 54.448C296.208 54.448 295.098 54.896 294.181 55.792C293.285 56.6667 292.837 57.872 292.837 59.408C292.837 60.944 293.296 62.1493 294.213 63.024C295.13 63.8987 296.229 64.336 297.509 64.336C298.789 64.336 299.888 63.8987 300.805 63.024C301.722 62.1493 302.181 60.944 302.181 59.408C302.181 57.8507 301.722 56.6347 300.805 55.76ZM308.082 52.72H313.106C314.322 52.72 315.25 52.976 315.89 53.488C316.658 54.1067 317.042 54.9387 317.042 55.984C317.042 57.136 316.562 58.0213 315.602 58.64C316.264 58.8107 316.818 59.1093 317.266 59.536C317.97 60.2187 318.322 61.072 318.322 62.096C318.322 63.376 317.864 64.3787 316.946 65.104C316.157 65.7013 315.112 66 313.81 66H308.082V52.72ZM310.386 58.128H312.818C313.437 58.128 313.928 58 314.29 57.744C314.717 57.424 314.93 56.9653 314.93 56.368C314.93 55.8347 314.717 55.408 314.29 55.088C313.97 54.8747 313.352 54.768 312.434 54.768H310.386V58.128ZM310.386 63.952H313.234C314.216 63.952 314.909 63.8027 315.314 63.504C315.826 63.12 316.082 62.6293 316.082 62.032C316.082 61.392 315.858 60.8907 315.41 60.528C315.005 60.208 314.312 60.048 313.33 60.048H310.386V63.952ZM332.008 54.608V52.72H334.312V66H332.008V64.144C330.856 65.6373 329.342 66.384 327.464 66.384C325.672 66.384 324.147 65.7653 322.888 64.528C321.63 63.2907 321 61.5627 321 59.344C321 57.168 321.619 55.472 322.856 54.256C324.115 53.0187 325.651 52.4 327.464 52.4C329.384 52.4 330.899 53.136 332.008 54.608ZM327.72 54.448C326.504 54.448 325.47 54.8853 324.616 55.76C323.784 56.6133 323.368 57.808 323.368 59.344C323.368 60.816 323.752 62.0213 324.52 62.96C325.31 63.8773 326.376 64.336 327.72 64.336C329.064 64.336 330.131 63.856 330.92 62.896C331.731 61.936 332.136 60.7627 332.136 59.376C332.136 57.7973 331.688 56.5813 330.792 55.728C329.896 54.8747 328.872 54.448 327.72 54.448ZM338.676 66V52.72H340.98V58.16H347.252V52.72H349.556V66H347.252V60.272H340.98V66H338.676ZM353.895 52.72H356.199V61.488L365.287 51.696V66H362.983V57.136L353.895 66.928V52.72ZM379.501 61.552L381.421 62.608C380.973 63.4613 380.429 64.176 379.789 64.752C378.573 65.84 377.101 66.384 375.373 66.384C373.581 66.384 372.034 65.808 370.733 64.656C369.453 63.4827 368.813 61.744 368.813 59.44C368.813 57.4133 369.389 55.7387 370.541 54.416C371.714 53.072 373.282 52.4 375.245 52.4C377.463 52.4 379.138 53.2107 380.269 54.832C381.165 56.112 381.581 57.776 381.517 59.824H371.181C371.202 61.168 371.618 62.256 372.429 63.088C373.239 63.92 374.231 64.336 375.405 64.336C376.45 64.336 377.357 64.016 378.125 63.376C378.722 62.864 379.181 62.256 379.501 61.552ZM371.341 57.904H379.149C378.957 56.8587 378.498 56.0267 377.773 55.408C377.069 54.768 376.226 54.448 375.245 54.448C374.285 54.448 373.431 54.7787 372.685 55.44C371.959 56.08 371.511 56.9013 371.341 57.904Z" fill="#F1F2B9"></path> <path d="M199.739 8.72H210.427V22H208.123V10.832H202.043V22H199.739V8.72ZM217.074 20.144V29.36H214.77V8.72H217.074V10.576C218.247 9.12533 219.762 8.4 221.618 8.4C223.602 8.4 225.17 9.104 226.322 10.512C227.495 11.8987 228.082 13.5413 228.082 15.44C228.082 17.36 227.506 19.0027 226.354 20.368C225.202 21.712 223.655 22.384 221.714 22.384C219.772 22.384 218.226 21.6373 217.074 20.144ZM221.394 20.336C222.695 20.336 223.74 19.8667 224.53 18.928C225.319 17.968 225.714 16.8053 225.714 15.44C225.714 13.904 225.276 12.688 224.402 11.792C223.527 10.896 222.514 10.448 221.362 10.448C220.21 10.448 219.186 10.896 218.29 11.792C217.394 12.688 216.946 13.8933 216.946 15.408C216.946 16.7947 217.351 17.968 218.162 18.928C218.994 19.8667 220.071 20.336 221.394 20.336ZM242.846 20.4C241.523 21.7227 239.848 22.384 237.822 22.384C235.795 22.384 234.11 21.7227 232.766 20.4C231.443 19.0773 230.782 17.4133 230.782 15.408C230.782 13.3813 231.443 11.7067 232.766 10.384C234.11 9.06133 235.795 8.4 237.822 8.4C239.848 8.4 241.523 9.06133 242.846 10.384C244.19 11.7067 244.862 13.3813 244.862 15.408C244.862 17.4133 244.19 19.0773 242.846 20.4ZM241.118 11.76C240.222 10.8853 239.123 10.448 237.822 10.448C236.52 10.448 235.411 10.896 234.494 11.792C233.598 12.6667 233.15 13.872 233.15 15.408C233.15 16.944 233.608 18.1493 234.526 19.024C235.443 19.8987 236.542 20.336 237.822 20.336C239.102 20.336 240.2 19.8987 241.118 19.024C242.035 18.1493 242.494 16.944 242.494 15.408C242.494 13.8507 242.035 12.6347 241.118 11.76ZM255.467 29.36V22.224C253.141 22.224 251.275 21.648 249.867 20.496C248.331 19.2587 247.563 17.5413 247.563 15.344C247.563 13.168 248.32 11.4613 249.835 10.224C251.2 9.072 253.077 8.496 255.467 8.496V0.655998H257.771V8.496C260.16 8.496 262.037 9.072 263.403 10.224C264.917 11.4613 265.675 13.168 265.675 15.344C265.675 17.5413 264.907 19.2587 263.371 20.496C261.963 21.648 260.096 22.224 257.771 22.224V29.36H255.467ZM255.467 20.176V10.544C253.952 10.544 252.768 10.8213 251.915 11.376C250.592 12.208 249.931 13.5307 249.931 15.344C249.931 17.0507 250.549 18.3413 251.787 19.216C252.683 19.856 253.909 20.176 255.467 20.176ZM257.771 10.544V20.176C259.328 20.176 260.555 19.856 261.451 19.216C262.688 18.3413 263.307 17.0507 263.307 15.344C263.307 13.5307 262.645 12.208 261.323 11.376C260.469 10.8213 259.285 10.544 257.771 10.544ZM279.063 17.552L280.983 18.608C280.535 19.4613 279.991 20.176 279.351 20.752C278.135 21.84 276.663 22.384 274.935 22.384C273.143 22.384 271.597 21.808 270.295 20.656C269.015 19.4827 268.375 17.744 268.375 15.44C268.375 13.4133 268.951 11.7387 270.103 10.416C271.277 9.072 272.845 8.4 274.807 8.4C277.026 8.4 278.701 9.21067 279.831 10.832C280.727 12.112 281.143 13.776 281.079 15.824H270.743C270.765 17.168 271.181 18.256 271.991 19.088C272.802 19.92 273.794 20.336 274.967 20.336C276.013 20.336 276.919 20.016 277.687 19.376C278.285 18.864 278.743 18.256 279.063 17.552ZM270.903 13.904H278.711C278.519 12.8587 278.061 12.0267 277.335 11.408C276.631 10.768 275.789 10.448 274.807 10.448C273.847 10.448 272.994 10.7787 272.247 11.44C271.522 12.08 271.074 12.9013 270.903 13.904ZM295.014 9.68V12.432C293.968 11.1093 292.582 10.448 290.854 10.448C289.552 10.448 288.443 10.896 287.526 11.792C286.608 12.6667 286.15 13.872 286.15 15.408C286.15 16.944 286.608 18.1493 287.526 19.024C288.443 19.8987 289.542 20.336 290.822 20.336C292.528 20.336 293.958 19.6427 295.11 18.256V21.008C293.851 21.9253 292.443 22.384 290.885 22.384C288.816 22.384 287.11 21.7333 285.766 20.432C284.443 19.1093 283.782 17.4453 283.782 15.44C283.782 13.4133 284.454 11.7387 285.798 10.416C287.142 9.072 288.838 8.4 290.885 8.4C292.422 8.4 293.798 8.82667 295.014 9.68ZM309.045 9.68V12.432C307.999 11.1093 306.613 10.448 304.885 10.448C303.583 10.448 302.474 10.896 301.557 11.792C300.639 12.6667 300.181 13.872 300.181 15.408C300.181 16.944 300.639 18.1493 301.557 19.024C302.474 19.8987 303.573 20.336 304.853 20.336C306.559 20.336 307.989 19.6427 309.141 18.256V21.008C307.882 21.9253 306.474 22.384 304.917 22.384C302.847 22.384 301.141 21.7333 299.797 20.432C298.474 19.1093 297.813 17.4453 297.813 15.44C297.813 13.4133 298.485 11.7387 299.829 10.416C301.173 9.072 302.869 8.4 304.917 8.4C306.453 8.4 307.829 8.82667 309.045 9.68ZM312.676 8.72H314.98V17.488L324.068 7.696V22H321.764V13.136L312.676 22.928V8.72ZM339.658 20.4C338.335 21.7227 336.661 22.384 334.634 22.384C332.607 22.384 330.922 21.7227 329.578 20.4C328.255 19.0773 327.594 17.4133 327.594 15.408C327.594 13.3813 328.255 11.7067 329.578 10.384C330.922 9.06133 332.607 8.4 334.634 8.4C336.661 8.4 338.335 9.06133 339.658 10.384C341.002 11.7067 341.674 13.3813 341.674 15.408C341.674 17.4133 341.002 19.0773 339.658 20.4ZM337.93 11.76C337.034 10.8853 335.935 10.448 334.634 10.448C333.333 10.448 332.223 10.896 331.306 11.792C330.41 12.6667 329.962 13.872 329.962 15.408C329.962 16.944 330.421 18.1493 331.338 19.024C332.255 19.8987 333.354 20.336 334.634 20.336C335.914 20.336 337.013 19.8987 337.93 19.024C338.847 18.1493 339.306 16.944 339.306 15.408C339.306 13.8507 338.847 12.6347 337.93 11.76ZM345.207 22V8.72H347.511V14.16H353.783V8.72H356.087V22H353.783V16.272H347.511V22H345.207ZM370.602 10.608V8.72H372.906V22H370.602V20.144C369.45 21.6373 367.935 22.384 366.058 22.384C364.266 22.384 362.741 21.7653 361.482 20.528C360.223 19.2907 359.594 17.5627 359.594 15.344C359.594 13.168 360.213 11.472 361.45 10.256C362.709 9.01867 364.245 8.4 366.058 8.4C367.978 8.4 369.493 9.136 370.602 10.608ZM366.314 10.448C365.098 10.448 364.063 10.8853 363.21 11.76C362.378 12.6133 361.962 13.808 361.962 15.344C361.962 16.816 362.346 18.0213 363.114 18.96C363.903 19.8773 364.97 20.336 366.314 20.336C367.658 20.336 368.725 19.856 369.514 18.896C370.325 17.936 370.73 16.7627 370.73 15.376C370.73 13.7973 370.282 12.5813 369.386 11.728C368.49 10.8747 367.466 10.448 366.314 10.448ZM387.318 8.72V22H385.014V10.832H380.278V16.816C380.278 18.544 379.936 19.824 379.254 20.656C378.486 21.5947 377.419 22.064 376.054 22.064C375.883 22.064 375.648 22.0427 375.35 22V19.888C375.563 19.9307 375.734 19.952 375.862 19.952C376.608 19.952 377.163 19.664 377.526 19.088C377.824 18.6187 377.974 17.8613 377.974 16.816V8.72H387.318ZM391.676 22V8.72H393.98V13.808H396.348C398.183 13.808 399.527 14.2453 400.38 15.12C401.063 15.8027 401.404 16.7307 401.404 17.904C401.404 19.1413 401.009 20.1333 400.22 20.88C399.431 21.6267 398.129 22 396.316 22H391.676ZM393.98 19.952H396.124C397.084 19.952 397.767 19.8347 398.172 19.6C398.748 19.216 399.036 18.6507 399.036 17.904C399.036 17.136 398.759 16.5813 398.204 16.24C397.82 15.984 397.137 15.856 396.156 15.856H393.98V19.952ZM404.489 22V8.72H406.793V14.16H413.065V8.72H415.369V22H413.065V16.272H406.793V22H404.489ZM419.707 22V8.72H422.011V13.808H424.379C426.214 13.808 427.558 14.2453 428.411 15.12C429.094 15.8027 429.435 16.7307 429.435 17.904C429.435 19.1413 429.041 20.1333 428.251 20.88C427.462 21.6267 426.161 22 424.347 22H419.707ZM422.011 19.952H424.155C425.115 19.952 425.798 19.8347 426.203 19.6C426.779 19.216 427.067 18.6507 427.067 17.904C427.067 17.136 426.79 16.5813 426.235 16.24C425.851 15.984 425.169 15.856 424.187 15.856H422.011V19.952ZM431.035 22V8.72H433.339V22H431.035ZM447.532 17.552L449.452 18.608C449.004 19.4613 448.46 20.176 447.82 20.752C446.604 21.84 445.132 22.384 443.404 22.384C441.612 22.384 440.065 21.808 438.764 20.656C437.484 19.4827 436.844 17.744 436.844 15.44C436.844 13.4133 437.42 11.7387 438.572 10.416C439.745 9.072 441.313 8.4 443.276 8.4C445.495 8.4 447.169 9.21067 448.3 10.832C449.196 12.112 449.612 13.776 449.548 15.824H439.212C439.233 17.168 439.649 18.256 440.46 19.088C441.271 19.92 442.263 20.336 443.436 20.336C444.481 20.336 445.388 20.016 446.156 19.376C446.753 18.864 447.212 18.256 447.532 17.552ZM439.372 13.904H447.18C446.988 12.8587 446.529 12.0267 445.804 11.408C445.1 10.768 444.257 10.448 443.276 10.448C442.316 10.448 441.463 10.7787 440.716 11.44C439.991 12.08 439.543 12.9013 439.372 13.904ZM461.127 22V0.655998H465.479C468.764 0.655998 471.388 1.488 473.351 3.152C475.783 5.17867 476.999 7.90933 476.999 11.344C476.999 14.672 475.751 17.4027 473.255 19.536C472.231 20.4107 471.132 21.04 469.959 21.424C468.786 21.808 467.282 22 465.447 22H461.127ZM463.495 2.896V19.76H465.575C468.114 19.76 470.151 19.12 471.687 17.84C473.607 16.2187 474.567 14.0533 474.567 11.344C474.567 8.784 473.746 6.736 472.103 5.2C470.46 3.664 468.284 2.896 465.575 2.896H463.495ZM483.266 0.655998H485.634V16.016C485.634 16.784 485.612 17.4027 485.57 17.872C485.548 18.32 485.431 18.8533 485.218 19.472C485.026 20.0907 484.727 20.6133 484.322 21.04C483.49 21.936 482.359 22.384 480.93 22.384C479.308 22.384 478.039 21.8613 477.122 20.816L478.434 18.96C479.159 19.7493 479.97 20.144 480.866 20.144C481.527 20.144 482.06 19.9413 482.466 19.536C482.999 19.0027 483.266 17.8507 483.266 16.08V0.655998ZM0.176 52.72H2.48V61.488L11.568 51.696V66H9.264V57.136L0.176 66.928V52.72ZM33.7948 53.68V56.432C32.7494 55.1093 31.3628 54.448 29.6348 54.448C28.3334 54.448 27.2241 54.896 26.3068 55.792C25.3894 56.6667 24.9308 57.872 24.9308 59.408C24.9308 60.944 25.3894 62.1493 26.3068 63.024C27.2241 63.8987 28.3228 64.336 29.6028 64.336C31.3094 64.336 32.7388 63.6427 33.8908 62.256V65.008C32.6321 65.9253 31.2241 66.384 29.6667 66.384C27.5974 66.384 25.8908 65.7333 24.5468 64.432C23.2241 63.1093 22.5628 61.4453 22.5628 59.44C22.5628 57.4133 23.2348 55.7387 24.5788 54.416C25.9228 53.072 27.6188 52.4 29.6667 52.4C31.2028 52.4 32.5788 52.8267 33.7948 53.68ZM37.426 66V52.72H39.73V63.888H45.682V52.72H47.986V63.888H50.162V69.52H48.05V66H37.426ZM62.4383 61.552L64.3583 62.608C63.9103 63.4613 63.3663 64.176 62.7263 64.752C61.5103 65.84 60.0383 66.384 58.3103 66.384C56.5183 66.384 54.9716 65.808 53.6703 64.656C52.3903 63.4827 51.7503 61.744 51.7503 59.44C51.7503 57.4133 52.3263 55.7387 53.4783 54.416C54.6516 53.072 56.2196 52.4 58.1823 52.4C60.4009 52.4 62.0756 53.2107 63.2063 54.832C64.1023 56.112 64.5183 57.776 64.4543 59.824H54.1183C54.1396 61.168 54.5556 62.256 55.3663 63.088C56.1769 63.92 57.1689 64.336 58.3423 64.336C59.3876 64.336 60.2943 64.016 61.0623 63.376C61.6596 62.864 62.1183 62.256 62.4383 61.552ZM54.2783 57.904H62.0863C61.8943 56.8587 61.4356 56.0267 60.7103 55.408C60.0063 54.768 59.1636 54.448 58.1823 54.448C57.2223 54.448 56.3689 54.7787 55.6223 55.44C54.8969 56.08 54.4489 56.9013 54.2783 57.904ZM67.9885 66V52.72H70.2925V58.16H76.5645V52.72H78.8685V66H76.5645V60.272H70.2925V66H67.9885ZM83.2073 52.72H85.5113V61.488L94.5993 51.696V66H92.2953V57.136L83.2073 66.928V52.72ZM106.061 66V60.784C104.803 60.976 103.757 61.072 102.925 61.072C101.475 61.072 100.397 60.752 99.6933 60.112C98.9466 59.4507 98.5733 58.3627 98.5733 56.848V52.72H100.877V56.528C100.877 57.2533 100.973 57.776 101.165 58.096C101.464 58.672 102.136 58.96 103.181 58.96C104.12 58.96 105.08 58.864 106.061 58.672V52.72H108.365V66H106.061ZM122.563 61.552L124.483 62.608C124.035 63.4613 123.491 64.176 122.851 64.752C121.635 65.84 120.163 66.384 118.435 66.384C116.643 66.384 115.097 65.808 113.795 64.656C112.515 63.4827 111.875 61.744 111.875 59.44C111.875 57.4133 112.451 55.7387 113.603 54.416C114.777 53.072 116.345 52.4 118.307 52.4C120.526 52.4 122.201 53.2107 123.331 54.832C124.227 56.112 124.643 57.776 124.579 59.824H114.243C114.265 61.168 114.681 62.256 115.491 63.088C116.302 63.92 117.294 64.336 118.467 64.336C119.513 64.336 120.419 64.016 121.187 63.376C121.785 62.864 122.243 62.256 122.563 61.552ZM114.403 57.904H122.211C122.019 56.8587 121.561 56.0267 120.835 55.408C120.131 54.768 119.289 54.448 118.307 54.448C117.347 54.448 116.494 54.7787 115.747 55.44C115.022 56.08 114.574 56.9013 114.403 57.904ZM138.514 53.68V56.432C137.468 55.1093 136.082 54.448 134.354 54.448C133.052 54.448 131.943 54.896 131.026 55.792C130.108 56.6667 129.65 57.872 129.65 59.408C129.65 60.944 130.108 62.1493 131.026 63.024C131.943 63.8987 133.042 64.336 134.322 64.336C136.028 64.336 137.458 63.6427 138.61 62.256V65.008C137.351 65.9253 135.943 66.384 134.385 66.384C132.316 66.384 130.61 65.7333 129.266 64.432C127.943 63.1093 127.282 61.4453 127.282 59.44C127.282 57.4133 127.954 55.7387 129.298 54.416C130.642 53.072 132.338 52.4 134.385 52.4C135.922 52.4 137.298 52.8267 138.514 53.68ZM142.145 52.72H144.449V58.16L149.825 52.72H152.641L146.881 58.64L153.345 66H150.337L145.153 60.176L144.449 60.848V66H142.145V52.72ZM166.252 64.4C164.929 65.7227 163.254 66.384 161.228 66.384C159.201 66.384 157.516 65.7227 156.172 64.4C154.849 63.0773 154.188 61.4133 154.188 59.408C154.188 57.3813 154.849 55.7067 156.172 54.384C157.516 53.0613 159.201 52.4 161.228 52.4C163.254 52.4 164.929 53.0613 166.252 54.384C167.596 55.7067 168.268 57.3813 168.268 59.408C168.268 61.4133 167.596 63.0773 166.252 64.4ZM164.524 55.76C163.628 54.8853 162.529 54.448 161.228 54.448C159.926 54.448 158.817 54.896 157.9 55.792C157.004 56.6667 156.556 57.872 156.556 59.408C156.556 60.944 157.014 62.1493 157.932 63.024C158.849 63.8987 159.948 64.336 161.228 64.336C162.508 64.336 163.606 63.8987 164.524 63.024C165.441 62.1493 165.9 60.944 165.9 59.408C165.9 57.8507 165.441 56.6347 164.524 55.76ZM181.657 61.552L183.577 62.608C183.129 63.4613 182.585 64.176 181.945 64.752C180.729 65.84 179.257 66.384 177.529 66.384C175.737 66.384 174.19 65.808 172.889 64.656C171.609 63.4827 170.969 61.744 170.969 59.44C170.969 57.4133 171.545 55.7387 172.697 54.416C173.87 53.072 175.438 52.4 177.401 52.4C179.62 52.4 181.294 53.2107 182.425 54.832C183.321 56.112 183.737 57.776 183.673 59.824H173.337C173.358 61.168 173.774 62.256 174.585 63.088C175.396 63.92 176.388 64.336 177.561 64.336C178.606 64.336 179.513 64.016 180.281 63.376C180.878 62.864 181.337 62.256 181.657 61.552ZM173.497 57.904H181.305C181.113 56.8587 180.654 56.0267 179.929 55.408C179.225 54.768 178.382 54.448 177.401 54.448C176.441 54.448 175.588 54.7787 174.841 55.44C174.116 56.08 173.668 56.9013 173.497 57.904ZM205.908 64.4C204.585 65.7227 202.911 66.384 200.884 66.384C198.857 66.384 197.172 65.7227 195.828 64.4C194.505 63.0773 193.844 61.4133 193.844 59.408C193.844 57.3813 194.505 55.7067 195.828 54.384C197.172 53.0613 198.857 52.4 200.884 52.4C202.911 52.4 204.585 53.0613 205.908 54.384C207.252 55.7067 207.924 57.3813 207.924 59.408C207.924 61.4133 207.252 63.0773 205.908 64.4ZM204.18 55.76C203.284 54.8853 202.185 54.448 200.884 54.448C199.583 54.448 198.473 54.896 197.556 55.792C196.66 56.6667 196.212 57.872 196.212 59.408C196.212 60.944 196.671 62.1493 197.588 63.024C198.505 63.8987 199.604 64.336 200.884 64.336C202.164 64.336 203.263 63.8987 204.18 63.024C205.097 62.1493 205.556 60.944 205.556 59.408C205.556 57.8507 205.097 56.6347 204.18 55.76ZM221.697 43.6H224.257C224.023 44.3893 223.617 45.0613 223.041 45.616C222.487 46.1493 221.975 46.512 221.505 46.704C221.057 46.896 220.524 47.0667 219.905 47.216C219.799 47.2373 219.543 47.3013 219.137 47.408C218.732 47.4933 218.423 47.568 218.209 47.632C217.996 47.696 217.719 47.7813 217.377 47.888C217.036 47.9947 216.727 48.1227 216.449 48.272C216.172 48.4213 215.916 48.5813 215.681 48.752C214.871 49.3707 214.209 50.2347 213.697 51.344C213.207 52.432 212.94 53.5947 212.897 54.832H212.961C213.921 53.2107 215.532 52.4 217.793 52.4C219.777 52.4 221.42 53.072 222.721 54.416C224.044 55.76 224.705 57.424 224.705 59.408C224.705 61.4133 224.033 63.0773 222.689 64.4C221.345 65.7227 219.596 66.384 217.441 66.384C215.585 66.384 214.06 65.8293 212.865 64.72C211.372 63.3547 210.625 61.072 210.625 57.872C210.625 52.304 211.884 48.656 214.401 46.928C214.593 46.8 214.796 46.6827 215.009 46.576C215.223 46.448 215.447 46.3413 215.681 46.256C215.937 46.1493 216.151 46.064 216.321 46C216.492 45.9147 216.727 45.84 217.025 45.776C217.345 45.6907 217.559 45.6373 217.665 45.616C217.793 45.5733 218.028 45.52 218.369 45.456C218.732 45.3707 218.956 45.3173 219.041 45.296C219.895 45.104 220.513 44.88 220.897 44.624C221.281 44.3467 221.548 44.0053 221.697 43.6ZM220.961 55.76C220.065 54.8853 218.967 54.448 217.665 54.448C216.364 54.448 215.255 54.896 214.337 55.792C213.441 56.6667 212.993 57.872 212.993 59.408C212.993 60.944 213.452 62.1493 214.369 63.024C215.287 63.8987 216.385 64.336 217.665 64.336C218.945 64.336 220.044 63.8987 220.961 63.024C221.879 62.1493 222.337 60.944 222.337 59.408C222.337 57.8507 221.879 56.6347 220.961 55.76ZM239.471 64.4C238.148 65.7227 236.473 66.384 234.447 66.384C232.42 66.384 230.735 65.7227 229.391 64.4C228.068 63.0773 227.407 61.4133 227.407 59.408C227.407 57.3813 228.068 55.7067 229.391 54.384C230.735 53.0613 232.42 52.4 234.447 52.4C236.473 52.4 238.148 53.0613 239.471 54.384C240.815 55.7067 241.487 57.3813 241.487 59.408C241.487 61.4133 240.815 63.0773 239.471 64.4ZM237.743 55.76C236.847 54.8853 235.748 54.448 234.447 54.448C233.145 54.448 232.036 54.896 231.119 55.792C230.223 56.6667 229.775 57.872 229.775 59.408C229.775 60.944 230.233 62.1493 231.151 63.024C232.068 63.8987 233.167 64.336 234.447 64.336C235.727 64.336 236.825 63.8987 237.743 63.024C238.66 62.1493 239.119 60.944 239.119 59.408C239.119 57.8507 238.66 56.6347 237.743 55.76ZM247.324 64.144V73.36H245.02V52.72H247.324V54.576C248.497 53.1253 250.012 52.4 251.868 52.4C253.852 52.4 255.42 53.104 256.572 54.512C257.745 55.8987 258.332 57.5413 258.332 59.44C258.332 61.36 257.756 63.0027 256.604 64.368C255.452 65.712 253.905 66.384 251.964 66.384C250.022 66.384 248.476 65.6373 247.324 64.144ZM251.644 64.336C252.945 64.336 253.99 63.8667 254.78 62.928C255.569 61.968 255.964 60.8053 255.964 59.44C255.964 57.904 255.526 56.688 254.652 55.792C253.777 54.896 252.764 54.448 251.612 54.448C250.46 54.448 249.436 54.896 248.54 55.792C247.644 56.688 247.196 57.8933 247.196 59.408C247.196 60.7947 247.601 61.968 248.412 62.928C249.244 63.8667 250.321 64.336 251.644 64.336ZM261.832 73.36L266.056 64.752L259.944 52.72H262.568L267.272 62.224L271.592 52.72H274.152L264.391 73.36H261.832ZM277.542 52.72H286.886V63.888H288.87V69.52H286.758V66H276.646V69.52H274.534V63.888C275.644 63.8667 276.465 63.2907 276.998 62.16C277.361 61.4133 277.542 60.24 277.542 58.64V52.72ZM284.582 63.888V54.832H279.846V59.824C279.846 61.5947 279.313 62.9493 278.246 63.888H284.582ZM302.533 64.4C301.21 65.7227 299.536 66.384 297.509 66.384C295.482 66.384 293.797 65.7227 292.453 64.4C291.13 63.0773 290.469 61.4133 290.469 59.408C290.469 57.3813 291.13 55.7067 292.453 54.384C293.797 53.0613 295.482 52.4 297.509 52.4C299.536 52.4 301.21 53.0613 302.533 54.384C303.877 55.7067 304.549 57.3813 304.549 59.408C304.549 61.4133 303.877 63.0773 302.533 64.4ZM300.805 55.76C299.909 54.8853 298.81 54.448 297.509 54.448C296.208 54.448 295.098 54.896 294.181 55.792C293.285 56.6667 292.837 57.872 292.837 59.408C292.837 60.944 293.296 62.1493 294.213 63.024C295.13 63.8987 296.229 64.336 297.509 64.336C298.789 64.336 299.888 63.8987 300.805 63.024C301.722 62.1493 302.181 60.944 302.181 59.408C302.181 57.8507 301.722 56.6347 300.805 55.76ZM308.082 52.72H313.106C314.322 52.72 315.25 52.976 315.89 53.488C316.658 54.1067 317.042 54.9387 317.042 55.984C317.042 57.136 316.562 58.0213 315.602 58.64C316.264 58.8107 316.818 59.1093 317.266 59.536C317.97 60.2187 318.322 61.072 318.322 62.096C318.322 63.376 317.864 64.3787 316.946 65.104C316.157 65.7013 315.112 66 313.81 66H308.082V52.72ZM310.386 58.128H312.818C313.437 58.128 313.928 58 314.29 57.744C314.717 57.424 314.93 56.9653 314.93 56.368C314.93 55.8347 314.717 55.408 314.29 55.088C313.97 54.8747 313.352 54.768 312.434 54.768H310.386V58.128ZM310.386 63.952H313.234C314.216 63.952 314.909 63.8027 315.314 63.504C315.826 63.12 316.082 62.6293 316.082 62.032C316.082 61.392 315.858 60.8907 315.41 60.528C315.005 60.208 314.312 60.048 313.33 60.048H310.386V63.952ZM332.008 54.608V52.72H334.312V66H332.008V64.144C330.856 65.6373 329.342 66.384 327.464 66.384C325.672 66.384 324.147 65.7653 322.888 64.528C321.63 63.2907 321 61.5627 321 59.344C321 57.168 321.619 55.472 322.856 54.256C324.115 53.0187 325.651 52.4 327.464 52.4C329.384 52.4 330.899 53.136 332.008 54.608ZM327.72 54.448C326.504 54.448 325.47 54.8853 324.616 55.76C323.784 56.6133 323.368 57.808 323.368 59.344C323.368 60.816 323.752 62.0213 324.52 62.96C325.31 63.8773 326.376 64.336 327.72 64.336C329.064 64.336 330.131 63.856 330.92 62.896C331.731 61.936 332.136 60.7627 332.136 59.376C332.136 57.7973 331.688 56.5813 330.792 55.728C329.896 54.8747 328.872 54.448 327.72 54.448ZM338.676 66V52.72H340.98V58.16H347.252V52.72H349.556V66H347.252V60.272H340.98V66H338.676ZM353.895 52.72H356.199V61.488L365.287 51.696V66H362.983V57.136L353.895 66.928V52.72ZM379.501 61.552L381.421 62.608C380.973 63.4613 380.429 64.176 379.789 64.752C378.573 65.84 377.101 66.384 375.373 66.384C373.581 66.384 372.034 65.808 370.733 64.656C369.453 63.4827 368.813 61.744 368.813 59.44C368.813 57.4133 369.389 55.7387 370.541 54.416C371.714 53.072 373.282 52.4 375.245 52.4C377.463 52.4 379.138 53.2107 380.269 54.832C381.165 56.112 381.581 57.776 381.517 59.824H371.181C371.202 61.168 371.618 62.256 372.429 63.088C373.239 63.92 374.231 64.336 375.405 64.336C376.45 64.336 377.357 64.016 378.125 63.376C378.722 62.864 379.181 62.256 379.501 61.552ZM371.341 57.904H379.149C378.957 56.8587 378.498 56.0267 377.773 55.408C377.069 54.768 376.226 54.448 375.245 54.448C374.285 54.448 373.431 54.7787 372.685 55.44C371.959 56.08 371.511 56.9013 371.341 57.904Z" fill="url(#paint0_linear_8_367)"></path> <defs> <linearGradient id="paint0_linear_8_367" x1="185.812" y1="8.13043" x2="245.17" y2="119.932" gradientUnits="userSpaceOnUse"> <stop stop-color="white" stop-opacity="0"></stop> <stop offset="0.453125" stop-color="white" stop-opacity="0.54"></stop> <stop offset="1" stop-color="white" stop-opacity="0"></stop> </linearGradient> </defs> </svg> 