<?xml version="1.0" encoding="UTF-8"?> <svg xmlns="http://www.w3.org/2000/svg" width="416" height="32" viewBox="0 0 416 32" fill="none"> <path d="M20.7231 27.0156L21.7856 27.9688C19.3481 30.1875 16.4783 31.2969 13.1763 31.2969C9.63459 31.2969 6.61375 30.0521 4.11375 27.5625C1.62417 25.0625 0.379379 22.0417 0.379379 18.5C0.379379 14.9688 1.62417 11.9531 4.11375 9.45312C6.61375 6.95312 9.63459 5.70312 13.1763 5.70312C16.4783 5.70312 19.3481 6.8125 21.7856 9.03125L20.7231 10C18.5773 8.09375 16.0617 7.14062 13.1763 7.14062C10.0408 7.14062 7.36375 8.25 5.145 10.4688C2.92625 12.6875 1.81688 15.3646 1.81688 18.5C1.81688 21.6458 2.92625 24.3281 5.145 26.5469C7.36375 28.7656 10.0408 29.875 13.1763 29.875C16.0617 29.875 18.5773 28.9219 20.7231 27.0156ZM46.8475 6V7.40625H35.7538V17.7969H46.8475V19.2031H35.7538V29.5938H46.8475V31H34.3475V6H46.8475ZM61.2063 22.3281V31H59.8V6H66.3625C68.2688 6.26042 69.8885 7.05729 71.2219 8.39062C72.8156 9.98438 73.6125 11.9062 73.6125 14.1562C73.6125 16.4167 72.8156 18.3438 71.2219 19.9375C69.6281 21.5312 67.7063 22.3281 65.4563 22.3281H61.2063ZM61.2063 7.42188V20.9062H65.4563C67.3104 20.9062 68.8938 20.25 70.2063 18.9375C71.5292 17.6146 72.1906 16.0208 72.1906 14.1562C72.1906 12.2917 71.5292 10.7031 70.2063 9.39062C68.8938 8.07812 67.3104 7.42188 65.4563 7.42188H61.2063ZM96.0494 6V7.42188H86.5338V31H85.1119V6H96.0494ZM120.455 6V7.40625H109.361V17.7969H120.455V19.2031H109.361V29.5938H120.455V31H107.955V6H120.455ZM152.798 6V31H151.392V8.26562L135.158 31H132.986V6H134.408V29.2812L151.017 6H152.798ZM140.376 0.4375C140.46 0.989583 140.699 1.46354 141.095 1.85938C141.595 2.35938 142.199 2.60938 142.908 2.60938C143.605 2.60938 144.204 2.35938 144.704 1.85938C145.111 1.46354 145.35 0.989583 145.423 0.4375H146.564C146.48 1.30208 146.126 2.04688 145.501 2.67188C144.793 3.39062 143.928 3.75 142.908 3.75C141.876 3.75 141.006 3.39062 140.298 2.67188C139.621 1.98438 139.262 1.23958 139.22 0.4375H140.376ZM197 20.0156L193.188 9.53125L189.375 20.0156H197ZM197.516 21.4219H188.859L185.375 31H183.875L193.188 5.42188L202.484 31H201L197.516 21.4219ZM224.843 6V7.42188H215.327V31H213.906V6H224.843ZM248.311 20.0156L244.499 9.53125L240.686 20.0156H248.311ZM248.827 21.4219H240.171L236.686 31H235.186L244.499 5.42188L253.796 31H252.311L248.827 21.4219ZM275.029 24.875V12.5781C272.248 12.6615 270.05 13.2552 268.436 14.3594C266.686 15.5677 265.811 17.0208 265.811 18.7188C265.811 20.4271 266.686 21.8802 268.436 23.0781C270.05 24.1927 272.248 24.7917 275.029 24.875ZM276.436 26.4219V30.9375H275.029V26.4219C271.821 26.3281 269.269 25.5729 267.373 24.1562C265.321 22.6458 264.295 20.8333 264.295 18.7188C264.295 16.5833 265.321 14.7604 267.373 13.25C269.269 11.8646 271.821 11.125 275.029 11.0312V6.03125H276.436V11.0312C279.665 11.125 282.232 11.8646 284.139 13.25C286.17 14.7604 287.186 16.5833 287.186 18.7188C287.186 20.8333 286.17 22.6458 284.139 24.1562C282.232 25.5729 279.665 26.3281 276.436 26.4219ZM276.436 12.5781V24.875C279.238 24.7917 281.446 24.1927 283.061 23.0781C284.8 21.8802 285.67 20.4271 285.67 18.7188C285.67 17.0208 284.8 15.5677 283.061 14.3594C281.446 13.2552 279.238 12.6615 276.436 12.5781ZM311.685 5.64062C315.227 5.64062 318.247 6.89583 320.747 9.40625C323.258 11.9062 324.513 14.9271 324.513 18.4688C324.513 22.0104 323.258 25.0365 320.747 27.5469C318.247 30.0469 315.227 31.2969 311.685 31.2969C308.143 31.2969 305.117 30.0469 302.607 27.5469C300.107 25.0365 298.857 22.0104 298.857 18.4688C298.857 14.9271 300.107 11.9062 302.607 9.40625C305.117 6.89583 308.143 5.64062 311.685 5.64062ZM311.685 7.07812C308.539 7.07812 305.852 8.19271 303.622 10.4219C301.404 12.6406 300.294 15.3229 300.294 18.4688C300.294 21.6146 301.404 24.3021 303.622 26.5312C305.852 28.7604 308.539 29.875 311.685 29.875C314.831 29.875 317.513 28.7604 319.732 26.5312C321.961 24.3021 323.076 21.6146 323.076 18.4688C323.076 15.3229 321.961 12.6406 319.732 10.4219C317.513 8.19271 314.831 7.07812 311.685 7.07812ZM338.856 19.7969V31H337.45V6H338.856V18.3906H349.325V6H350.731V31H349.325V19.7969H338.856ZM376.496 5.64062C380.038 5.64062 383.059 6.89583 385.559 9.40625C388.069 11.9062 389.324 14.9271 389.324 18.4688C389.324 22.0104 388.069 25.0365 385.559 27.5469C383.059 30.0469 380.038 31.2969 376.496 31.2969C372.955 31.2969 369.929 30.0469 367.418 27.5469C364.918 25.0365 363.668 22.0104 363.668 18.4688C363.668 14.9271 364.918 11.9062 367.418 9.40625C369.929 6.89583 372.955 5.64062 376.496 5.64062ZM376.496 7.07812C373.35 7.07812 370.663 8.19271 368.434 10.4219C366.215 12.6406 365.106 15.3229 365.106 18.4688C365.106 21.6146 366.215 24.3021 368.434 26.5312C370.663 28.7604 373.35 29.875 376.496 29.875C379.642 29.875 382.324 28.7604 384.543 26.5312C386.772 24.3021 387.887 21.6146 387.887 18.4688C387.887 15.3229 386.772 12.6406 384.543 10.4219C382.324 8.19271 379.642 7.07812 376.496 7.07812ZM406.699 6C407.98 6 409.074 6.45312 409.98 7.35938C410.897 8.26562 411.355 9.35938 411.355 10.6406C411.355 11.9323 410.694 13.1354 409.371 14.25C410.537 14.4896 411.636 15.1771 412.667 16.3125C414.334 17.9896 415.167 20.0156 415.167 22.3906C415.167 24.7552 414.334 26.8021 412.667 28.5312C411.115 30.1354 409.261 30.9531 407.105 30.9844V31H402.261V6H406.699ZM403.667 15.2969V29.5938H407.105V29.6094C408.845 29.4948 410.345 28.7812 411.605 27.4688C412.99 26.0417 413.683 24.349 413.683 22.3906C413.683 20.4323 412.99 18.7604 411.605 17.375C410.22 15.9896 408.548 15.2969 406.589 15.2969H403.667ZM403.667 7.40625V13.7969H407.058C407.839 13.724 408.506 13.4323 409.058 12.9219C409.694 12.3385 410.011 11.5781 410.011 10.6406C410.011 9.70312 409.694 8.93229 409.058 8.32812C408.423 7.71354 407.636 7.40625 406.699 7.40625H403.667Z" fill="url(#paint0_linear_8_413)"></path> <defs> <linearGradient id="paint0_linear_8_413" x1="207.5" y1="-4" x2="282.704" y2="160.41" gradientUnits="userSpaceOnUse"> <stop stop-color="white"></stop> <stop offset="1" stop-color="white" stop-opacity="0"></stop> </linearGradient> </defs> </svg> 