<?xml version="1.0" encoding="UTF-8"?> <svg xmlns="http://www.w3.org/2000/svg" width="369" height="27" viewBox="0 0 369 27" fill="none"> <path d="M1.83188 13.8906V26H0.425629V1H1.83188V11.6406L9.81625 1H11.6288L4.12875 11.0625L13.8163 26H12.0819L3.20688 12.1875L1.83188 13.8906ZM38.6594 0.640625C42.201 0.640625 45.2219 1.89583 47.7219 4.40625C50.2323 6.90625 51.4875 9.92708 51.4875 13.4688C51.4875 17.0104 50.2323 20.0365 47.7219 22.5469C45.2219 25.0469 42.201 26.2969 38.6594 26.2969C35.1177 26.2969 32.0917 25.0469 29.5813 22.5469C27.0813 20.0365 25.8313 17.0104 25.8313 13.4688C25.8313 9.92708 27.0813 6.90625 29.5813 4.40625C32.0917 1.89583 35.1177 0.640625 38.6594 0.640625ZM38.6594 2.07812C35.5135 2.07812 32.826 3.19271 30.5969 5.42188C28.3781 7.64062 27.2688 10.3229 27.2688 13.4688C27.2688 16.6146 28.3781 19.3021 30.5969 21.5312C32.826 23.7604 35.5135 24.875 38.6594 24.875C41.8052 24.875 44.4875 23.7604 46.7063 21.5312C48.9354 19.3021 50.05 16.6146 50.05 13.4688C50.05 10.3229 48.9354 7.64062 46.7063 5.42188C44.4875 3.19271 41.8052 2.07812 38.6594 2.07812ZM65.8306 17.3281V26H64.4244V1H70.9869C72.8931 1.26042 74.5129 2.05729 75.8463 3.39062C77.44 4.98438 78.2369 6.90625 78.2369 9.15625C78.2369 11.4167 77.44 13.3438 75.8463 14.9375C74.2525 16.5312 72.3306 17.3281 70.0806 17.3281H65.8306ZM65.8306 2.42188V15.9062H70.0806C71.9348 15.9062 73.5181 15.25 74.8306 13.9375C76.1535 12.6146 76.815 11.0208 76.815 9.15625C76.815 7.29167 76.1535 5.70312 74.8306 4.39062C73.5181 3.07812 71.9348 2.42188 70.0806 2.42188H65.8306ZM90.83 2.42188V26H89.4081V1H105.033V26H103.627V2.42188H90.83ZM130.142 0.640625C133.684 0.640625 136.704 1.89583 139.204 4.40625C141.715 6.90625 142.97 9.92708 142.97 13.4688C142.97 17.0104 141.715 20.0365 139.204 22.5469C136.704 25.0469 133.684 26.2969 130.142 26.2969C126.6 26.2969 123.574 25.0469 121.064 22.5469C118.564 20.0365 117.314 17.0104 117.314 13.4688C117.314 9.92708 118.564 6.90625 121.064 4.40625C123.574 1.89583 126.6 0.640625 130.142 0.640625ZM130.142 2.07812C126.996 2.07812 124.309 3.19271 122.079 5.42188C119.861 7.64062 118.751 10.3229 118.751 13.4688C118.751 16.6146 119.861 19.3021 122.079 21.5312C124.309 23.7604 126.996 24.875 130.142 24.875C133.288 24.875 135.97 23.7604 138.189 21.5312C140.418 19.3021 141.533 16.6146 141.533 13.4688C141.533 10.3229 140.418 7.64062 138.189 5.42188C135.97 3.19271 133.288 2.07812 130.142 2.07812ZM157.313 17.3281V26H155.907V1H162.469C164.376 1.26042 165.995 2.05729 167.329 3.39062C168.923 4.98438 169.719 6.90625 169.719 9.15625C169.719 11.4167 168.923 13.3438 167.329 14.9375C165.735 16.5312 163.813 17.3281 161.563 17.3281H157.313ZM157.313 2.42188V15.9062H161.563C163.417 15.9062 165.001 15.25 166.313 13.9375C167.636 12.6146 168.298 11.0208 168.298 9.15625C168.298 7.29167 167.636 5.70312 166.313 4.39062C165.001 3.07812 163.417 2.42188 161.563 2.42188H157.313ZM193.141 15.0156L189.328 4.53125L185.516 15.0156H193.141ZM193.656 16.4219H185L181.516 26H180.016L189.328 0.421875L198.625 26H197.141L193.656 16.4219ZM216.577 2.40625V26H215.171V2.40625H208.843V1H222.906V2.40625H216.577ZM254.061 1V26H252.655V3.26562L236.421 26H234.249V1H235.671V24.2812L252.28 1H254.061ZM271.436 1C272.717 1 273.811 1.45312 274.717 2.35938C275.634 3.26562 276.092 4.35938 276.092 5.64062C276.092 6.93229 275.43 8.13542 274.108 9.25C275.274 9.48958 276.373 10.1771 277.404 11.3125C279.071 12.9896 279.904 15.0156 279.904 17.3906C279.904 19.7552 279.071 21.8021 277.404 23.5312C275.852 25.1354 273.998 25.9531 271.842 25.9844V26H266.998V1H271.436ZM268.404 10.2969V24.5938H271.842V24.6094C273.581 24.4948 275.081 23.7812 276.342 22.4688C277.727 21.0417 278.42 19.349 278.42 17.3906C278.42 15.4323 277.727 13.7604 276.342 12.375C274.956 10.9896 273.285 10.2969 271.326 10.2969H268.404ZM268.404 2.40625V8.79688H271.795C272.576 8.72396 273.243 8.43229 273.795 7.92188C274.43 7.33854 274.748 6.57812 274.748 5.64062C274.748 4.70312 274.43 3.93229 273.795 3.32812C273.16 2.71354 272.373 2.40625 271.436 2.40625H268.404ZM293.701 14.7969V26H292.294V1H293.701V13.3906H304.169V1H305.576V26H304.169V14.7969H293.701ZM339.622 1V26H338.216V1H339.622ZM318.2 26V1H319.622V12.8281H327.919C329.658 12.8698 331.091 13.5104 332.216 14.75C333.351 15.9896 333.919 17.5104 333.919 19.3125C333.919 21.2396 333.351 22.8281 332.216 24.0781C331.091 25.3281 329.658 25.9688 327.919 26H318.2ZM319.622 14.25V24.5938H327.794C329.096 24.5938 330.21 24.0677 331.138 23.0156C332.065 21.9531 332.528 20.7292 332.528 19.3438C332.528 18.0417 332.065 16.8698 331.138 15.8281C330.21 14.776 329.096 14.25 327.794 14.25H319.622ZM350.668 26L358.59 12.2656L352.09 1H353.699L359.387 10.875L365.106 1H366.715L360.184 12.2656L368.137 26H366.527L359.387 13.6562L352.262 26H350.668Z" fill="url(#paint0_linear_8_414)"></path> <defs> <linearGradient id="paint0_linear_8_414" x1="183.5" y1="-9" x2="264.57" y2="147.93" gradientUnits="userSpaceOnUse"> <stop stop-color="white"></stop> <stop offset="1" stop-color="white" stop-opacity="0"></stop> </linearGradient> </defs> </svg> 