<?xml version="1.0" encoding="UTF-8"?> <svg xmlns="http://www.w3.org/2000/svg" width="529" height="166" viewBox="0 0 529 166" fill="none"> <path d="M19.581 154.438C22.387 154.438 24.827 154.255 26.901 153.889C29.097 153.401 30.866 151.815 32.208 149.131C33.672 146.447 34.77 142.177 35.502 136.321C36.234 130.465 36.6 122.108 36.6 111.25C36.6 103.076 36.478 96.488 36.234 91.486C35.99 86.362 35.441 82.397 34.587 79.591C33.733 76.663 32.574 74.711 31.11 73.735C29.646 72.637 27.755 72.088 25.437 72.088C23.241 72.088 21.655 72.698 20.679 73.918C19.825 75.138 19.398 76.968 19.398 79.408L19.581 154.438ZM0 28.9H19.398C25.254 28.9 29.89 29.51 33.306 30.73C36.844 31.828 39.528 33.414 41.358 35.488C43.188 37.44 44.347 39.697 44.835 42.259C45.445 44.821 45.75 47.444 45.75 50.128C45.75 53.3 45.689 56.167 45.567 58.729C45.445 61.169 44.957 63.304 44.103 65.134C43.249 66.842 41.968 68.184 40.26 69.16C38.552 70.136 36.112 70.624 32.94 70.624C37.332 70.624 40.748 71.661 43.188 73.735C45.628 75.687 47.397 78.432 48.495 81.97C49.593 85.508 50.203 89.778 50.325 94.78C50.569 99.782 50.691 105.272 50.691 111.25C50.691 122.596 50.142 131.38 49.044 137.602C48.068 143.702 46.36 148.216 43.92 151.144C41.602 154.072 38.43 155.78 34.404 156.268C30.5 156.756 25.559 157 19.581 157H0V154.438H4.575V31.462H0V28.9ZM19.398 73.003C19.398 72.027 19.886 71.173 20.862 70.441C21.838 69.709 23.607 69.343 26.169 69.343C28.365 69.343 30.073 69.221 31.293 68.977C32.513 68.733 33.428 68.123 34.038 67.147C34.648 66.049 35.014 64.463 35.136 62.389C35.258 60.315 35.319 57.448 35.319 53.788C35.319 48.176 34.953 43.906 34.221 40.978C33.611 37.928 32.635 35.732 31.293 34.39C29.951 32.926 28.304 32.072 26.352 31.828C24.4 31.584 22.082 31.462 19.398 31.462V73.003ZM108.46 28.9V36.952H106.081V31.096H82.8404L83.0234 90.937C83.0234 89.717 83.5114 88.802 84.4874 88.192C85.4634 87.46 87.2324 87.094 89.7944 87.094H98.5784V83.251H100.957V92.95H98.5784V89.473H89.0624C86.8664 89.473 85.2804 90.083 84.3044 91.303C83.4504 92.523 83.0234 94.353 83.0234 96.793V154.804H106.081V148.948H108.46V157H63.4424V154.804H68.0174V31.096H63.4424V28.9H108.46ZM172.249 28.9C172.249 28.9 172.249 30.73 172.249 34.39C172.249 37.928 172.249 42.625 172.249 48.481C172.249 54.337 172.249 61.047 172.249 68.611C172.249 76.053 172.249 83.678 172.249 91.486C172.371 99.294 172.432 106.98 172.432 114.544C172.432 121.986 172.432 128.696 172.432 134.674C172.432 140.53 172.432 145.349 172.432 149.131C172.432 152.791 172.432 154.682 172.432 154.804H182.68V164.686H180.484V157H114.421V164.686H112.225V154.804H121.009C123.937 149.436 126.56 142.97 128.878 135.406C130.952 129.062 132.782 121.254 134.368 111.982C136.076 102.588 136.93 91.791 136.93 79.591V28.9H172.249ZM139.492 31.096V79.408C139.492 91.608 138.638 102.405 136.93 111.799C135.344 121.071 133.575 128.94 131.623 135.406C129.305 142.97 126.682 149.436 123.754 154.804H157.426V31.096H139.492ZM209.465 154.621C211.295 154.621 212.881 154.072 214.223 152.974C215.565 151.754 216.724 150.107 217.7 148.033C218.676 145.959 219.591 143.519 220.445 140.713C221.299 137.907 222.214 134.918 223.19 131.746L194.825 31.096H191.165V28.9H213.674V31.096H209.465L230.51 105.577L248.627 31.096H245.15V28.9H254.483V31.096H251.372L225.569 134.491C224.471 138.151 223.373 141.384 222.275 144.19C221.299 146.996 220.201 149.375 218.981 151.327C217.883 153.157 216.541 154.56 214.955 155.536C213.369 156.39 211.478 156.817 209.282 156.817C206.232 156.817 203.731 156.207 201.779 154.987C199.827 153.645 198.363 152.12 197.387 150.412C196.533 148.704 196.045 146.935 195.923 145.105C195.923 143.153 196.228 141.506 196.838 140.164C197.57 138.822 198.607 137.907 199.949 137.419C201.291 136.931 202.816 137.236 204.524 138.334C206.598 139.554 207.757 140.835 208.001 142.177C208.367 143.397 208.245 144.556 207.635 145.654C207.147 146.752 206.476 147.789 205.622 148.765C204.768 149.741 204.158 150.656 203.792 151.51C203.426 152.242 203.609 152.913 204.341 153.523C205.073 154.011 206.781 154.377 209.465 154.621ZM268.603 157V154.804H273.178V31.096H268.603V28.9H291.844V31.096H288.184L288.001 154.804H309.229V31.096H304.654V28.9H327.895V31.096H324.235L324.052 154.804H346.561V31.096H341.986V28.9H365.227V31.096H361.567L361.384 154.804H374.56V165.052H372.364V157H268.603ZM430.859 58.18C430.859 58.18 430.432 59.339 429.578 61.657C428.846 63.853 427.87 66.842 426.65 70.624C425.552 74.284 424.21 78.493 422.624 83.251C421.16 88.009 419.635 92.828 418.049 97.708C414.267 109.298 409.997 122.413 405.239 137.053V154.804H408.899V157H385.658V154.804H390.233V31.096H385.658V28.9H408.899V31.096H405.056L405.239 129.916C405.239 129.916 405.605 128.818 406.337 126.622C407.191 124.304 408.228 121.315 409.448 117.655C410.668 113.873 412.01 109.664 413.474 105.028C415.06 100.27 416.646 95.39 418.232 90.388C422.014 78.798 426.223 65.683 430.859 51.043V31.096H426.284V28.9H449.525V31.096H445.682L445.865 154.804H449.525V157H426.284V154.804H430.859V58.18ZM497.397 18.469C500.935 18.225 503.314 17.798 504.534 17.188C505.876 16.578 506.486 15.907 506.364 15.175C506.364 14.443 505.937 13.65 505.083 12.796C504.351 11.82 503.68 10.844 503.07 9.868C502.46 8.77 502.216 7.672 502.338 6.574C502.46 5.47599 503.497 4.317 505.449 3.097C507.035 2.12099 508.438 1.87699 509.658 2.36499C510.878 2.853 511.793 3.707 512.403 4.92699C513.013 6.14699 513.257 7.61099 513.135 9.31899C513.013 11.027 512.403 12.674 511.305 14.26C510.207 15.724 508.499 17.005 506.181 18.103C503.985 19.201 501.057 19.75 497.397 19.75C492.029 19.75 488.125 18.652 485.685 16.456C483.367 14.138 482.086 11.759 481.842 9.31899C481.598 6.87899 482.208 4.866 483.672 3.27999C485.136 1.69399 487.088 1.63299 489.528 3.097C491.358 4.317 492.334 5.47599 492.456 6.574C492.7 7.672 492.517 8.77 491.907 9.868C491.297 10.844 490.565 11.82 489.711 12.796C488.857 13.65 488.43 14.443 488.43 15.175C488.43 15.907 489.04 16.578 490.26 17.188C491.48 17.798 493.859 18.225 497.397 18.469ZM510.207 58.18C510.207 58.18 509.78 59.339 508.926 61.657C508.194 63.853 507.218 66.842 505.998 70.624C504.9 74.284 503.558 78.493 501.972 83.251C500.508 88.009 498.983 92.828 497.397 97.708C493.615 109.298 489.345 122.413 484.587 137.053V154.804H488.247V157H465.006V154.804H469.581V31.096H465.006V28.9H488.247V31.096H484.404L484.587 129.916C484.587 129.916 484.953 128.818 485.685 126.622C486.539 124.304 487.576 121.315 488.796 117.655C490.016 113.873 491.358 109.664 492.822 105.028C494.408 100.27 495.994 95.39 497.58 90.388C501.362 78.798 505.571 65.683 510.207 51.043V31.096H505.632V28.9H528.873V31.096H525.03L525.213 154.804H528.873V157H505.632V154.804H510.207V58.18Z" fill="url(#paint0_linear_8_361)"></path> <defs> <linearGradient id="paint0_linear_8_361" x1="272.5" y1="20" x2="416.026" y2="389.157" gradientUnits="userSpaceOnUse"> <stop stop-color="white"></stop> <stop offset="1" stop-color="white" stop-opacity="0"></stop> </linearGradient> </defs> </svg> 