<?xml version="1.0" encoding="UTF-8"?> <svg xmlns="http://www.w3.org/2000/svg" width="711" height="146" viewBox="0 0 711 146" fill="none"> <path d="M28.73 116.59L6.63 41.96L7.14 143.96H11.05V146H0V143.96H4.25V29.04H0V27H18.02L35.36 87.86L55.08 27H69.87V29.04H65.62L65.79 143.96H69.87V146H46.92V143.96H51.85V45.19L28.73 116.59ZM121.341 27V34.48H119.131V29.04H97.5415L97.7115 84.63C97.7115 83.4967 98.1648 82.6467 99.0715 82.08C99.9782 81.4 101.621 81.06 104.001 81.06H112.161V77.49H114.371V86.5H112.161V83.27H103.321C101.281 83.27 99.8082 83.8367 98.9015 84.97C98.1082 86.1033 97.7115 87.8033 97.7115 90.07V143.96H119.131V138.52H121.341V146H79.5215V143.96H83.7715V29.04H79.5215V27H121.341ZM150.168 29.04L150.338 107.58C150.338 106.673 150.792 105.88 151.698 105.2C152.605 104.52 154.248 104.18 156.628 104.18C158.782 104.18 160.482 103.84 161.728 103.16C162.975 102.48 163.882 100.837 164.448 98.23C165.128 95.51 165.525 91.4867 165.638 86.16C165.865 80.8333 165.978 73.5233 165.978 64.23C165.978 55.05 165.582 48.08 164.788 43.32C163.995 38.56 162.862 35.1033 161.388 32.95C160.028 30.7967 158.328 29.6067 156.288 29.38C154.362 29.1533 152.322 29.04 150.168 29.04ZM150.168 27C155.608 27 160.198 27.2267 163.938 27.68C167.678 28.02 170.682 29.38 172.948 31.76C175.215 34.0267 176.802 37.71 177.708 42.81C178.615 47.7967 179.068 54.9367 179.068 64.23C179.068 74.5433 178.842 82.5333 178.388 88.2C178.048 93.8667 177.142 98.06 175.668 100.78C174.195 103.5 171.872 105.143 168.698 105.71C165.638 106.277 161.388 106.56 155.948 106.56C153.908 106.56 152.435 107.127 151.528 108.26C150.735 109.393 150.338 111.093 150.338 113.36V143.96H153.738V146H132.148V143.96H136.398V29.04H132.148V27H150.168ZM193.302 120.5C193.189 106.9 193.132 95.7367 193.132 87.01C193.245 78.2833 193.302 71.37 193.302 66.27V52.5C193.302 49.78 193.415 46.9467 193.642 44C193.869 40.94 194.662 38.1633 196.022 35.67C197.382 33.1767 199.535 31.1367 202.482 29.55C205.542 27.85 209.792 27 215.232 27C220.785 27 225.035 27.7367 227.982 29.21C231.042 30.57 233.252 32.44 234.612 34.82C236.085 37.0867 236.935 39.75 237.162 42.81C237.389 45.87 237.445 49.1 237.332 52.5C237.332 61.1133 237.332 68.7067 237.332 75.28C237.445 81.74 237.502 87.4067 237.502 92.28C237.502 97.04 237.502 101.063 237.502 104.35C237.615 107.637 237.672 110.3 237.672 112.34C237.672 117.213 237.729 119.933 237.842 120.5C237.842 124.807 237.729 128.547 237.502 131.72C237.275 134.893 236.425 137.557 234.952 139.71C233.592 141.75 231.382 143.337 228.322 144.47C225.262 145.49 220.899 146 215.232 146C209.792 146 205.542 145.49 202.482 144.47C199.535 143.337 197.382 141.693 196.022 139.54C194.662 137.387 193.869 134.78 193.642 131.72C193.415 128.547 193.302 124.807 193.302 120.5ZM206.392 120.5C206.392 124.24 206.449 127.583 206.562 130.53C206.675 133.363 206.959 135.8 207.412 137.84C207.979 139.767 208.829 141.297 209.962 142.43C211.209 143.45 212.965 143.96 215.232 143.96C217.385 143.96 219.029 143.45 220.162 142.43C221.409 141.297 222.315 139.767 222.882 137.84C223.449 135.8 223.732 133.363 223.732 130.53C223.845 127.583 223.902 124.24 223.902 120.5V108.94C223.902 104.18 223.845 97.38 223.732 88.54C223.732 79.5867 223.675 67.5733 223.562 52.5C223.675 49.5533 223.675 46.72 223.562 44C223.449 41.1667 223.109 38.6733 222.542 36.52C222.089 34.2533 221.239 32.44 219.992 31.08C218.859 29.72 217.272 29.04 215.232 29.04C212.965 29.04 211.209 29.8333 209.962 31.42C208.829 32.8933 207.979 34.82 207.412 37.2C206.959 39.4667 206.675 42.0167 206.562 44.85C206.449 47.57 206.392 50.12 206.392 52.5V68.82C206.392 74.3733 206.335 81.4567 206.222 90.07C206.222 98.57 206.279 108.713 206.392 120.5ZM268.04 29.04L268.21 143.96H271.61V146H250.02V143.96H254.27V29.04H250.02V27H306.97V29.04H303.4L303.57 143.96H306.97V146H285.38V143.96H289.63V29.04H268.04ZM339.094 29.04L339.264 107.58C339.264 106.673 339.718 105.88 340.624 105.2C341.531 104.52 343.174 104.18 345.554 104.18C347.708 104.18 349.408 103.84 350.654 103.16C351.901 102.48 352.808 100.837 353.374 98.23C354.054 95.51 354.451 91.4867 354.564 86.16C354.791 80.8333 354.904 73.5233 354.904 64.23C354.904 55.05 354.508 48.08 353.714 43.32C352.921 38.56 351.788 35.1033 350.314 32.95C348.954 30.7967 347.254 29.6067 345.214 29.38C343.288 29.1533 341.248 29.04 339.094 29.04ZM339.094 27C344.534 27 349.124 27.2267 352.864 27.68C356.604 28.02 359.608 29.38 361.874 31.76C364.141 34.0267 365.728 37.71 366.634 42.81C367.541 47.7967 367.994 54.9367 367.994 64.23C367.994 74.5433 367.768 82.5333 367.314 88.2C366.974 93.8667 366.068 98.06 364.594 100.78C363.121 103.5 360.798 105.143 357.624 105.71C354.564 106.277 350.314 106.56 344.874 106.56C342.834 106.56 341.361 107.127 340.454 108.26C339.661 109.393 339.264 111.093 339.264 113.36V143.96H342.664V146H321.074V143.96H325.324V29.04H321.074V27H339.094ZM421.668 54.2C421.668 54.2 421.271 55.2767 420.478 57.43C419.798 59.47 418.891 62.2467 417.758 65.76C416.738 69.16 415.491 73.07 414.018 77.49C412.658 81.91 411.241 86.3867 409.768 90.92C406.254 101.687 402.288 113.87 397.868 127.47V143.96H401.268V146H379.678V143.96H383.928V29.04H379.678V27H401.268V29.04H397.698L397.868 120.84C397.868 120.84 398.208 119.82 398.888 117.78C399.681 115.627 400.644 112.85 401.778 109.45C402.911 105.937 404.158 102.027 405.518 97.72C406.991 93.3 408.464 88.7667 409.938 84.12C413.451 73.3533 417.361 61.17 421.668 47.57V29.04H417.418V27H439.008V29.04H435.438L435.608 143.96H439.008V146H417.418V143.96H421.668V54.2ZM489.089 29.04C486.822 29.04 484.725 29.2667 482.799 29.72C480.985 30.1733 479.342 31.25 477.869 32.95C476.395 34.65 475.262 37.2567 474.469 40.77C473.675 44.17 473.279 48.8733 473.279 54.88C473.279 63.38 473.335 69.9533 473.449 74.6C473.675 79.1333 474.072 82.4767 474.639 84.63C475.319 86.7833 476.282 88.03 477.529 88.37C478.775 88.71 480.532 88.88 482.799 88.88C485.179 88.88 486.822 89.1633 487.729 89.73C488.635 90.1833 489.089 90.8633 489.089 91.77V29.04ZM507.109 27V29.04H502.859V143.79H507.109V146H485.519V143.79H488.919L489.089 98.06C489.089 95.7933 488.635 94.0933 487.729 92.96C486.935 91.8267 485.519 91.26 483.479 91.26C482.005 91.26 480.645 91.3733 479.399 91.6C478.152 91.7133 477.019 92.5633 475.999 94.15C475.092 95.7367 474.412 98.3433 473.959 101.97C473.505 105.483 473.279 110.64 473.279 117.44C473.279 123.107 473.279 127.753 473.279 131.38C473.279 135.007 472.712 137.953 471.579 140.22C470.445 142.373 468.462 143.903 465.629 144.81C462.909 145.603 458.829 146 453.389 146V143.79C455.542 143.79 457.072 143.45 457.979 142.77C458.999 142.09 459.622 140.787 459.849 138.86C460.189 136.82 460.302 134.1 460.189 130.7C460.075 127.3 460.075 122.88 460.189 117.44C460.189 112.567 460.245 108.43 460.359 105.03C460.585 101.63 461.265 98.8533 462.399 96.7C463.645 94.5467 465.515 93.0167 468.009 92.11C470.615 91.09 474.242 90.4667 478.889 90.24C474.242 90.24 470.672 89.6733 468.179 88.54C465.685 87.4067 463.815 85.48 462.569 82.76C461.435 80.04 460.755 76.4133 460.529 71.88C460.302 67.3467 460.189 61.68 460.189 54.88C460.189 48.6467 460.642 43.7167 461.549 40.09C462.569 36.35 464.155 33.5167 466.309 31.59C468.575 29.6633 471.579 28.4167 475.319 27.85C479.059 27.2833 483.649 27 489.089 27H507.109ZM567.913 27V35.33H565.703V29.04H548.873L549.043 143.96H552.443V146H530.853V143.96H535.103V29.04H519.123V35.33H516.913V27H567.913ZM619.724 54.2C619.724 54.2 619.328 55.2767 618.534 57.43C617.854 59.47 616.948 62.2467 615.814 65.76C614.794 69.16 613.548 73.07 612.074 77.49C610.714 81.91 609.298 86.3867 607.824 90.92C604.311 101.687 600.344 113.87 595.924 127.47V143.96H599.324V146H577.734V143.96H581.984V29.04H577.734V27H599.324V29.04H595.754L595.924 120.84C595.924 120.84 596.264 119.82 596.944 117.78C597.738 115.627 598.701 112.85 599.834 109.45C600.968 105.937 602.214 102.027 603.574 97.72C605.048 93.3 606.521 88.7667 607.994 84.12C611.508 73.3533 615.418 61.17 619.724 47.57V29.04H615.474V27H637.064V29.04H633.494L633.664 143.96H637.064V146H615.474V143.96H619.724V54.2ZM681.535 17.31C684.822 17.0833 687.032 16.6867 688.165 16.12C689.412 15.5533 689.979 14.93 689.865 14.25C689.865 13.57 689.469 12.8333 688.675 12.04C687.995 11.1333 687.372 10.2267 686.805 9.32C686.239 8.3 686.012 7.28 686.125 6.26C686.239 5.24 687.202 4.16333 689.015 3.03C690.489 2.12333 691.792 1.89666 692.925 2.35C694.059 2.80333 694.909 3.59666 695.475 4.72999C696.042 5.86333 696.269 7.22333 696.155 8.80999C696.042 10.3967 695.475 11.9267 694.455 13.4C693.435 14.76 691.849 15.95 689.695 16.97C687.655 17.99 684.935 18.5 681.535 18.5C676.549 18.5 672.922 17.48 670.655 15.44C668.502 13.2867 667.312 11.0767 667.085 8.80999C666.859 6.54333 667.425 4.67333 668.785 3.19999C670.145 1.72666 671.959 1.66999 674.225 3.03C675.925 4.16333 676.832 5.24 676.945 6.26C677.172 7.28 677.002 8.3 676.435 9.32C675.869 10.2267 675.189 11.1333 674.395 12.04C673.602 12.8333 673.205 13.57 673.205 14.25C673.205 14.93 673.772 15.5533 674.905 16.12C676.039 16.6867 678.249 17.0833 681.535 17.31ZM693.435 54.2C693.435 54.2 693.039 55.2767 692.245 57.43C691.565 59.47 690.659 62.2467 689.525 65.76C688.505 69.16 687.259 73.07 685.785 77.49C684.425 81.91 683.009 86.3867 681.535 90.92C678.022 101.687 674.055 113.87 669.635 127.47V143.96H673.035V146H651.445V143.96H655.695V29.04H651.445V27H673.035V29.04H669.465L669.635 120.84C669.635 120.84 669.975 119.82 670.655 117.78C671.449 115.627 672.412 112.85 673.545 109.45C674.679 105.937 675.925 102.027 677.285 97.72C678.759 93.3 680.232 88.7667 681.705 84.12C685.219 73.3533 689.129 61.17 693.435 47.57V29.04H689.185V27H710.775V29.04H707.205L707.375 143.96H710.775V146H689.185V143.96H693.435V54.2Z" fill="url(#paint0_linear_8_415)"></path> <defs> <linearGradient id="paint0_linear_8_415" x1="363" y1="18" x2="746.99" y2="394.472" gradientUnits="userSpaceOnUse"> <stop stop-color="white"></stop> <stop offset="1" stop-color="white" stop-opacity="0"></stop> </linearGradient> </defs> </svg> 