<?xml version="1.0" encoding="UTF-8"?> <svg xmlns="http://www.w3.org/2000/svg" width="37" height="37" viewBox="0 0 37 37" fill="none"> <path d="M35.4811 11.2041C34.5583 9.01148 33.2354 7.04341 31.549 5.35299C29.8627 3.66666 27.8946 2.33964 25.6979 1.42093C23.4522 0.477727 21.0676 0 18.6096 0H18.5279C16.0535 0.0122494 13.6567 0.502226 11.4028 1.46585C9.22653 2.3968 7.27479 3.71974 5.60479 5.40607C3.93479 7.09241 2.6241 9.05232 1.71764 11.2368C0.778521 13.4989 0.304877 15.9038 0.317126 18.3782C0.329376 21.2119 1.00718 24.0252 2.27703 26.5404V32.7468C2.27703 33.7839 3.11816 34.625 4.15528 34.625H10.3657C12.8809 35.8949 15.6942 36.5727 18.5279 36.5849H18.6137C21.0595 36.5849 23.4318 36.1113 25.6652 35.1844C27.8497 34.2739 29.8137 32.9673 31.496 31.2972C33.1823 29.6272 34.5093 27.6755 35.4362 25.4992C36.3998 23.2453 36.8898 20.8485 36.902 18.3741C36.9143 15.8875 36.4325 13.4744 35.4811 11.2041ZM29.3115 29.0883C26.4492 31.922 22.6519 33.4817 18.6096 33.4817H18.5402C16.078 33.4695 13.6322 32.857 11.4723 31.7056L11.1293 31.5218H5.38022V25.7728L5.19648 25.4298C4.04503 23.2698 3.43256 20.824 3.42031 18.3619C3.40398 14.291 4.95965 10.4692 7.81377 7.59055C10.6638 4.71194 14.4734 3.11952 18.5443 3.10318H18.6137C20.6552 3.10318 22.6356 3.49925 24.5015 4.28321C26.3226 5.04676 27.9559 6.14512 29.3605 7.54972C30.761 8.95024 31.8634 10.5876 32.627 12.4087C33.4191 14.2951 33.8152 16.2958 33.807 18.3619C33.7825 22.4287 32.186 26.2382 29.3115 29.0883Z" fill="#F1F2B9"></path> <path d="M35.4811 11.2041C34.5583 9.01148 33.2354 7.04341 31.549 5.35299C29.8627 3.66666 27.8946 2.33964 25.6979 1.42093C23.4522 0.477727 21.0676 0 18.6096 0H18.5279C16.0535 0.0122494 13.6567 0.502226 11.4028 1.46585C9.22653 2.3968 7.27479 3.71974 5.60479 5.40607C3.93479 7.09241 2.6241 9.05232 1.71764 11.2368C0.778521 13.4989 0.304877 15.9038 0.317126 18.3782C0.329376 21.2119 1.00718 24.0252 2.27703 26.5404V32.7468C2.27703 33.7839 3.11816 34.625 4.15528 34.625H10.3657C12.8809 35.8949 15.6942 36.5727 18.5279 36.5849H18.6137C21.0595 36.5849 23.4318 36.1113 25.6652 35.1844C27.8497 34.2739 29.8137 32.9673 31.496 31.2972C33.1823 29.6272 34.5093 27.6755 35.4362 25.4992C36.3998 23.2453 36.8898 20.8485 36.902 18.3741C36.9143 15.8875 36.4325 13.4744 35.4811 11.2041ZM29.3115 29.0883C26.4492 31.922 22.6519 33.4817 18.6096 33.4817H18.5402C16.078 33.4695 13.6322 32.857 11.4723 31.7056L11.1293 31.5218H5.38022V25.7728L5.19648 25.4298C4.04503 23.2698 3.43256 20.824 3.42031 18.3619C3.40398 14.291 4.95965 10.4692 7.81377 7.59055C10.6638 4.71194 14.4734 3.11952 18.5443 3.10318H18.6137C20.6552 3.10318 22.6356 3.49925 24.5015 4.28321C26.3226 5.04676 27.9559 6.14512 29.3605 7.54972C30.761 8.95024 31.8634 10.5876 32.627 12.4087C33.4191 14.2951 33.8152 16.2958 33.807 18.3619C33.7825 22.4287 32.186 26.2382 29.3115 29.0883Z" fill="url(#paint0_linear_1_2374)"></path> <path d="M34.4632 18.2931C34.4632 27.0488 27.3652 34.1468 18.6095 34.1468C14.1135 34.1468 8.08006 34.7143 5.19487 31.7077C2.46129 28.8592 2.75584 22.5528 2.75584 18.2931C2.75584 9.53738 9.85377 2.43945 18.6095 2.43945C27.3652 2.43945 34.4632 9.53738 34.4632 18.2931Z" fill="#F1F2B9"></path> <path d="M34.4632 18.2931C34.4632 27.0488 27.3652 34.1468 18.6095 34.1468C14.1135 34.1468 8.08006 34.7143 5.19487 31.7077C2.46129 28.8592 2.75584 22.5528 2.75584 18.2931C2.75584 9.53738 9.85377 2.43945 18.6095 2.43945C27.3652 2.43945 34.4632 9.53738 34.4632 18.2931Z" fill="url(#paint1_linear_1_2374)"></path> <path d="M26.8374 21.8808C26.3924 21.6522 24.1752 20.5661 23.7628 20.4191C23.3504 20.2639 23.0483 20.1904 22.7502 20.6477C22.4481 21.101 21.5906 22.1095 21.3211 22.4157C21.0598 22.7179 20.7944 22.7546 20.3493 22.53C17.7035 21.2071 15.9681 20.17 14.2246 17.1771C13.7632 16.3808 14.686 16.438 15.5476 14.719C15.6946 14.4169 15.6211 14.1596 15.5067 13.931C15.3924 13.7023 14.4941 11.4892 14.1185 10.5869C13.7551 9.709 13.3794 9.83149 13.1058 9.81516C12.8445 9.79883 12.5465 9.79883 12.2443 9.79883C11.9422 9.79883 11.4563 9.91316 11.0439 10.3582C10.6315 10.8114 9.46777 11.9016 9.46777 14.1147C9.46777 16.3278 11.0806 18.4714 11.3011 18.7736C11.5298 19.0757 14.4737 23.6162 18.9937 25.572C21.8519 26.8051 22.9707 26.9113 24.3998 26.6989C25.2695 26.5683 27.062 25.6128 27.4336 24.5553C27.8051 23.5018 27.8051 22.5995 27.6949 22.4116C27.5847 22.2116 27.2825 22.0972 26.8374 21.8808Z" fill="black"></path> <defs> <linearGradient id="paint0_linear_1_2374" x1="14.1144" y1="7.95324" x2="31.9677" y2="13.8955" gradientUnits="userSpaceOnUse"> <stop stop-color="white" stop-opacity="0"></stop> <stop offset="0.453125" stop-color="white" stop-opacity="0.54"></stop> <stop offset="1" stop-color="white" stop-opacity="0"></stop> </linearGradient> <linearGradient id="paint1_linear_1_2374" x1="14.708" y1="9.34161" x2="30.1886" y2="14.4887" gradientUnits="userSpaceOnUse"> <stop stop-color="white" stop-opacity="0"></stop> <stop offset="0.453125" stop-color="white" stop-opacity="0.54"></stop> <stop offset="1" stop-color="white" stop-opacity="0"></stop> </linearGradient> </defs> </svg> 